<svg viewBox="0 0 100 100" fill="none" xmlns="http://www.w3.org/2000/svg" class="mr-2 h-5 w-5"><path d="M0 47.917C0 25.329 0 14.034 7.017 7.017C14.034 0 25.329 0 47.917 0H52.083C74.671 0 85.966 0 92.983 7.017C100 14.034 100 25.329 100 47.917V52.083C100 74.671 100 85.966 92.983 92.983C85.966 100 74.671 100 52.083 100H47.917C25.329 100 14.034 100 7.017 92.983C0 85.966 0 74.671 0 52.083V47.917ZM27.085 31.25H19.792C17.708 31.25 17.291 32.231 17.291 33.312C17.291 35.244 19.764 44.822 28.804 57.491C34.831 66.143 43.322 70.833 51.049 70.833C55.685 70.833 56.259 69.792 56.259 67.997V61.458C56.259 59.375 56.698 58.959 58.166 58.959C59.248 58.959 61.102 59.5 65.429 63.671C70.374 68.615 71.19 70.833 73.971 70.833H81.264C83.348 70.833 84.39 69.792 83.789 67.736C83.131 65.687 80.77 62.715 77.637 59.191C75.937 57.182 73.388 55.02 72.615 53.938C71.533 52.547 71.842 51.929 72.615 50.694C72.615 50.694 81.501 38.179 82.428 33.93C82.892 32.385 82.428 31.25 80.222 31.25H72.929C71.075 31.25 70.22 32.231 69.756 33.312C69.756 33.312 66.047 42.35 60.793 48.221C59.093 49.921 58.32 50.462 57.393 50.462C56.93 50.462 56.259 49.921 56.259 48.376V33.93C56.259 32.076 55.72 31.25 54.175 31.25H42.714C41.555 31.25 40.858 32.11 40.858 32.926C40.858 34.684 43.485 35.089 43.756 40.033V50.771C43.756 53.125 43.33 53.552 42.403 53.552C39.931 53.552 33.916 44.473 30.349 34.085C29.65 32.066 28.949 31.25 27.085 31.25Z" fill="currentColor"></path></svg>