<?xml version="1.0" encoding="UTF-8" standalone="no"?>
<!DOCTYPE svg PUBLIC "-//W3C//DTD SVG 1.1//EN" "http://www.w3.org/Graphics/SVG/1.1/DTD/svg11.dtd">
<svg version="1.1" xmlns="http://www.w3.org/2000/svg" xmlns:xlink="http://www.w3.org/1999/xlink" preserveAspectRatio="xMidYMid meet" viewBox="0 0 160 63.9" width="160" height="63.9"><defs><path d="M7.81 52.16C8.47 52.42 9.17 52.55 9.92 52.55C10.64 52.55 11.3 52.41 11.89 52.14C12.48 51.87 12.99 51.43 13.42 50.85C13.85 50.26 14.17 49.52 14.4 48.61C14.63 47.7 14.75 46.62 14.75 45.36C14.75 44.12 14.65 43.06 14.46 42.2C14.26 41.33 13.99 40.63 13.64 40.1C13.28 39.56 12.85 39.17 12.34 38.94C11.84 38.7 11.28 38.58 10.66 38.58C9.6 38.58 8.72 38.78 8.01 39.2C7.29 39.61 6.61 40.21 5.98 41.01C5.98 41.66 5.98 44.92 5.98 50.8C6.76 51.53 7.37 51.99 7.81 52.16ZM7.06 35.92C7.57 35.51 8.11 35.16 8.68 34.86C9.26 34.57 9.88 34.34 10.55 34.17C11.21 34 11.93 33.92 12.71 33.92C13.91 33.92 15.02 34.18 16.02 34.69C17.02 35.2 17.88 35.95 18.6 36.92C19.33 37.9 19.89 39.09 20.29 40.51C20.7 41.92 20.9 43.54 20.9 45.36C20.9 47.04 20.68 48.58 20.22 50C19.77 51.42 19.12 52.66 18.28 53.7C17.44 54.74 16.44 55.55 15.26 56.13C14.08 56.72 12.77 57.01 11.33 57.01C10.11 57.01 9.09 56.83 8.24 56.47C7.4 56.11 6.64 55.62 5.98 55C5.98 55.59 5.98 58.56 5.98 63.9L0 63.9L0 34.36C2.21 34.36 3.44 34.36 3.68 34.36C4.43 34.36 4.93 34.7 5.18 35.4C5.21 35.52 5.36 36.15 5.63 37.28C6.25 36.65 6.72 36.2 7.06 35.92ZM32.77 47.73C31.8 47.91 31.03 48.15 30.46 48.44C29.89 48.72 29.49 49.05 29.25 49.42C29.01 49.79 28.89 50.19 28.89 50.62C28.89 51.49 29.14 52.1 29.62 52.46C30.1 52.83 30.77 53.01 31.64 53.01C32.64 53.01 33.5 52.83 34.23 52.47C34.96 52.12 35.68 51.57 36.41 50.82C36.41 50.59 36.41 49.43 36.41 47.35C34.62 47.48 33.41 47.61 32.77 47.73ZM28.59 34.8C30.18 34.21 31.89 33.92 33.74 33.92C35.07 33.92 36.26 34.14 37.31 34.57C38.35 35.01 39.24 35.61 39.97 36.38C40.7 37.15 41.26 38.08 41.65 39.14C42.04 40.21 42.23 41.38 42.23 42.65C42.23 43.59 42.23 48.27 42.23 56.69C40.59 56.69 39.68 56.69 39.5 56.69C38.94 56.69 38.51 56.61 38.22 56.45C37.92 56.29 37.68 55.96 37.49 55.45C37.44 55.31 37.06 54.17 37.01 54.02C36.45 54.51 35.91 54.95 35.38 55.32C34.85 55.7 34.3 56.01 33.74 56.26C33.18 56.51 32.58 56.71 31.94 56.84C31.29 56.97 30.57 57.03 29.78 57.03C28.8 57.03 27.9 56.9 27.09 56.64C26.28 56.38 25.59 55.99 25.01 55.48C24.42 54.97 23.97 54.33 23.65 53.57C23.33 52.8 23.17 51.92 23.17 50.93C23.17 50.1 23.38 49.28 23.8 48.46C24.22 47.63 24.94 46.88 25.96 46.21C26.98 45.54 28.33 44.99 30.03 44.54C31.73 44.1 33.85 43.86 36.41 43.8C36.41 43.69 36.41 42.77 36.41 42.65C36.41 41.25 36.11 40.22 35.52 39.56C34.93 38.91 34.07 38.58 32.96 38.58C32.14 38.58 31.45 38.68 30.9 38.87C30.36 39.07 29.88 39.27 29.47 39.5C29.06 39.72 28.67 39.93 28.31 40.13C27.94 40.32 27.53 40.42 27.05 40.42C26.63 40.42 26.28 40.31 26 40.1C25.72 39.9 25.48 39.65 25.3 39.36C25.22 39.23 24.87 38.6 24.23 37.46C26.08 36.07 27.53 35.19 28.59 34.8ZM54.9 62.69C54.71 63.09 54.49 63.39 54.22 63.6C53.95 63.8 53.53 63.9 52.95 63.9C52.65 63.9 51.17 63.9 48.51 63.9L52.73 54.89L43.77 34.36C46.91 34.36 48.66 34.36 49.01 34.36C49.49 34.36 49.85 34.47 50.11 34.68C50.37 34.9 50.56 35.15 50.68 35.44C51.1 36.51 54.5 45.05 54.92 46.12C55.08 46.54 55.22 46.96 55.35 47.38C55.47 47.81 55.59 48.23 55.7 48.65C55.96 47.8 56.26 46.95 56.59 46.1C56.98 45.03 60.14 36.51 60.53 35.44C60.65 35.12 60.86 34.86 61.16 34.66C61.46 34.46 61.79 34.36 62.15 34.36C62.47 34.36 64.07 34.36 66.94 34.36C59.72 51.36 55.7 60.8 54.9 62.69ZM83.18 34.81C84.56 35.35 85.73 36.11 86.71 37.09C87.7 38.08 88.45 39.29 88.99 40.7C89.52 42.12 89.79 43.71 89.79 45.49C89.79 47.27 89.52 48.86 88.99 50.28C88.45 51.71 87.7 52.92 86.71 53.92C85.73 54.91 84.56 55.68 83.18 56.21C81.81 56.75 80.29 57.01 78.61 57.01C76.92 57.01 75.39 56.75 74.02 56.21C72.64 55.68 71.45 54.91 70.47 53.92C69.49 52.92 68.73 51.71 68.19 50.28C67.65 48.86 67.37 47.27 67.37 45.49C67.37 43.71 67.65 42.12 68.19 40.7C68.73 39.29 69.49 38.08 70.47 37.09C71.45 36.11 72.64 35.35 74.02 34.81C75.39 34.28 76.92 34.01 78.61 34.01C80.29 34.01 81.81 34.28 83.18 34.81ZM82.4 50.76C83.23 49.58 83.64 47.84 83.64 45.51C83.64 43.2 83.23 41.45 82.4 40.28C81.58 39.1 80.32 38.52 78.61 38.52C76.87 38.52 75.58 39.1 74.76 40.28C73.94 41.45 73.52 43.2 73.52 45.51C73.52 47.84 73.94 49.58 74.76 50.76C75.58 51.94 76.87 52.53 78.61 52.53C80.32 52.53 81.58 51.94 82.4 50.76ZM99.53 42.72C100.13 42.72 100.46 42.72 100.53 42.72C100.91 42.72 101.2 42.66 101.42 42.55C101.64 42.44 101.85 42.25 102.07 41.96C102.56 41.3 106.51 36.03 107.01 35.38C107.25 35.04 107.53 34.79 107.84 34.62C108.15 34.44 108.54 34.36 109.02 34.36C109.38 34.36 111.2 34.36 114.48 34.36C110.63 39.24 108.49 41.96 108.07 42.5C107.56 43.18 106.98 43.71 106.31 44.1C106.65 44.34 106.93 44.6 107.18 44.91C107.42 45.21 107.66 45.55 107.89 45.92C108.35 46.64 110.66 50.23 114.8 56.69C111.58 56.69 109.79 56.69 109.43 56.69C108.97 56.69 108.57 56.61 108.24 56.46C107.91 56.31 107.63 56.04 107.42 55.65C106.92 54.83 102.9 48.26 102.39 47.44C102.19 47.09 101.98 46.87 101.77 46.77C101.55 46.67 101.22 46.62 100.79 46.62C100.71 46.62 100.29 46.62 99.53 46.62L99.53 56.69L93.56 56.69C93.56 35.84 93.56 24.25 93.56 21.93C93.78 22.15 94.02 22.34 94.29 22.5C95.19 23.05 96.25 23.22 97.27 22.98C98.18 22.77 98.98 22.25 99.53 21.52C99.53 24.34 99.53 31.41 99.53 42.72ZM153.39 34.81C154.77 35.35 155.94 36.11 156.92 37.09C157.91 38.08 158.66 39.29 159.2 40.7C159.73 42.12 160 43.71 160 45.49C160 47.27 159.73 48.86 159.2 50.28C158.66 51.71 157.91 52.92 156.92 53.92C155.94 54.91 154.77 55.68 153.39 56.21C152.02 56.75 150.5 57.01 148.83 57.01C147.14 57.01 145.61 56.75 144.23 56.21C142.85 55.68 141.66 54.91 140.68 53.92C139.7 52.92 138.94 51.71 138.4 50.28C137.86 48.86 137.59 47.27 137.59 45.49C137.59 43.71 137.86 42.12 138.4 40.7C138.94 39.29 139.7 38.08 140.68 37.09C141.66 36.11 142.85 35.35 144.23 34.81C145.61 34.28 147.14 34.01 148.83 34.01C150.5 34.01 152.02 34.28 153.39 34.81ZM152.62 50.76C153.44 49.58 153.85 47.84 153.85 45.51C153.85 43.2 153.44 41.45 152.62 40.28C151.79 39.1 150.53 38.52 148.83 38.52C147.08 38.52 145.79 39.1 144.97 40.28C144.15 41.45 143.74 43.2 143.74 45.51C143.74 47.84 144.15 49.58 144.97 50.76C145.79 51.94 147.08 52.53 148.83 52.53C150.53 52.53 151.79 51.94 152.62 50.76ZM133.64 56.69L127.67 56.69L127.67 34.36L133.64 34.36L133.64 56.69ZM134.06 29.42C133.85 29.85 133.59 30.24 133.25 30.57C132.91 30.9 132.51 31.16 132.06 31.35C131.6 31.54 131.11 31.63 130.59 31.63C130.1 31.63 129.64 31.54 129.2 31.35C128.76 31.16 128.37 30.9 128.03 30.57C127.7 30.24 127.44 29.85 127.25 29.42C127.05 28.99 126.95 28.52 126.95 28.01C126.95 27.51 127.05 27.03 127.25 26.59C127.44 26.15 127.7 25.77 128.03 25.43C128.37 25.1 128.76 24.84 129.2 24.66C129.64 24.47 130.1 24.37 130.59 24.37C131.11 24.37 131.6 24.47 132.06 24.66C132.51 24.84 132.91 25.1 133.25 25.43C133.59 25.77 133.85 26.15 134.06 26.59C134.26 27.03 134.36 27.51 134.36 28.01C134.36 28.52 134.26 28.99 134.06 29.42Z" id="a65BU7TRm"/><path d="M116.61 52.19C116.79 51.76 117.04 51.4 117.36 51.09C117.68 50.78 118.05 50.53 118.48 50.35C118.9 50.17 119.36 50.08 119.87 50.08C120.36 50.08 120.82 50.17 121.26 50.35C121.69 50.53 122.06 50.78 122.38 51.09C122.7 51.4 122.95 51.76 123.13 52.19C123.31 52.62 123.4 53.07 123.4 53.55C123.4 54.04 123.31 54.49 123.13 54.91C122.95 55.33 122.7 55.69 122.38 56C122.06 56.31 121.69 56.56 121.26 56.73C120.82 56.9 120.36 56.99 119.87 56.99C119.36 56.99 118.9 56.9 118.48 56.73C118.05 56.56 117.68 56.31 117.36 56C117.04 55.69 116.79 55.33 116.61 54.91C116.43 54.49 116.34 54.04 116.34 53.55C116.34 53.07 116.43 52.62 116.61 52.19Z" id="g4R2PskFH0"/><path d="M97.12 22.32C95.34 22.74 93.55 21.63 93.14 19.85C92.95 19.09 92.05 15.27 90.42 8.39C83.58 10.19 79.79 11.18 79.03 11.38C77.26 11.85 75.45 10.79 74.98 9.02C74.51 7.25 75.57 5.44 77.34 4.97C78.53 4.66 84.52 3.09 95.3 0.26L99.59 18.33C99.13 20.71 98.31 22.04 97.12 22.32Z" id="e6SlGtHfd"/><path d="M91.56 5.86C92.96 6.49 93.58 8.14 92.95 9.54C87.45 21.7 74.56 28.51 58.69 30.91C41.39 33.53 20.42 30.91 1.85 24.28C0.4 23.77 -0.35 22.17 0.16 20.72C0.68 19.28 2.27 18.52 3.72 19.04C21.47 25.37 41.46 27.89 57.86 25.4C71.93 23.27 83.26 17.47 87.88 7.25C88.51 5.85 90.16 5.23 91.56 5.86Z" id="bdaDySNUs"/><path d="M90.33 8.15C83.55 9.93 79.78 10.92 79.03 11.11C77.26 11.58 75.45 10.53 74.98 8.76C74.51 6.99 75.57 5.18 77.34 4.71C78.53 4.39 84.51 2.83 95.28 0C95.29 0 95.3 0 95.3 0C95.51 3.55 95.08 6.91 90.42 8.13C90.41 8.13 90.38 8.14 90.33 8.15Z" id="f2b3C6QIKN"/></defs><g><g><g><use xlink:href="#a65BU7TRm" opacity="1" fill="#ececec" fill-opacity="1"/><g><use xlink:href="#a65BU7TRm" opacity="1" fill-opacity="0" stroke="#000000" stroke-width="1" stroke-opacity="0"/></g></g><g><use xlink:href="#g4R2PskFH0" opacity="1" fill="#fbcd02" fill-opacity="1"/><g><use xlink:href="#g4R2PskFH0" opacity="1" fill-opacity="0" stroke="#000000" stroke-width="1" stroke-opacity="0"/></g></g><g><use xlink:href="#e6SlGtHfd" opacity="1" fill="#fbcd02" fill-opacity="1"/><g><use xlink:href="#e6SlGtHfd" opacity="1" fill-opacity="0" stroke="#000000" stroke-width="1" stroke-opacity="0"/></g></g><g><use xlink:href="#bdaDySNUs" opacity="1" fill="#fbcd02" fill-opacity="1"/><g><use xlink:href="#bdaDySNUs" opacity="1" fill-opacity="0" stroke="#000000" stroke-width="1" stroke-opacity="0"/></g></g><g><use xlink:href="#f2b3C6QIKN" opacity="1" fill="#ffe15c" fill-opacity="1"/><g><use xlink:href="#f2b3C6QIKN" opacity="1" fill-opacity="0" stroke="#000000" stroke-width="1" stroke-opacity="0"/></g></g></g></g></svg>