<?xml version="1.0" encoding="UTF-8" standalone="no"?>
<!DOCTYPE svg PUBLIC "-//W3C//DTD SVG 1.1//EN" "http://www.w3.org/Graphics/SVG/1.1/DTD/svg11.dtd">
<svg version="1.1" xmlns="http://www.w3.org/2000/svg" xmlns:xlink="http://www.w3.org/1999/xlink" preserveAspectRatio="xMidYMid meet" viewBox="0 0 175 70" width="175" height="70"><defs><path d="M14.7 55.71C15.17 55.05 15.52 54.25 15.77 53.25C16.03 52.26 16.16 51.08 16.16 49.69C16.16 48.33 16.05 47.17 15.84 46.22C15.62 45.27 15.33 44.51 14.95 43.92C14.55 43.34 14.07 42.9 13.52 42.65C12.97 42.4 12.36 42.27 11.68 42.27C10.51 42.27 9.56 42.48 8.77 42.95C7.99 43.39 7.25 44.05 6.56 44.92C6.56 45.63 6.56 49.2 6.56 55.65C7.41 56.44 8.07 56.94 8.55 57.13C9.28 57.42 10.05 57.56 10.86 57.56C11.66 57.56 12.38 57.41 13.02 57.12C13.67 56.82 14.23 56.34 14.7 55.71ZM13.93 37.16C15.24 37.16 16.45 37.44 17.55 38C18.64 38.56 19.59 39.37 20.37 40.44C21.18 41.51 21.78 42.82 22.23 44.38C22.68 45.92 22.89 47.69 22.89 49.69C22.89 51.53 22.66 53.21 22.14 54.76C21.65 56.33 20.94 57.69 20.02 58.82C19.11 59.97 18 60.85 16.72 61.48C15.42 62.12 13.99 62.45 12.4 62.45C11.08 62.45 9.95 62.25 9.03 61.86C8.11 61.46 7.28 60.92 6.56 60.25C6.56 60.9 6.56 64.14 6.56 70C6.11 70 3.93 70 0 70C0 50.59 0 39.79 0 37.64C2.43 37.64 3.77 37.64 4.04 37.64C4.85 37.64 5.4 38.01 5.67 38.78C5.71 38.91 5.87 39.6 6.17 40.84C6.85 40.16 7.36 39.65 7.74 39.34C8.3 38.9 8.88 38.51 9.51 38.18C10.14 37.87 10.83 37.61 11.56 37.43C12.29 37.24 13.07 37.16 13.93 37.16ZM31.64 55.45C31.64 56.41 31.92 57.07 32.45 57.47C32.97 57.87 33.71 58.08 34.66 58.08C35.76 58.08 36.7 57.87 37.5 57.48C38.29 57.1 39.1 56.49 39.89 55.67C39.89 55.42 39.89 54.14 39.89 51.87C37.92 52.01 36.6 52.15 35.89 52.28C34.83 52.49 34 52.73 33.37 53.06C32.74 53.36 32.31 53.72 32.04 54.13C31.78 54.54 31.64 54.99 31.64 55.45ZM43.79 39.85C44.58 40.69 45.2 41.71 45.62 42.87C46.05 44.05 46.26 45.33 46.26 46.71C46.26 47.75 46.26 52.87 46.26 62.1C44.46 62.1 43.47 62.1 43.26 62.1C42.65 62.1 42.18 62.01 41.86 61.83C41.55 61.66 41.28 61.3 41.07 60.74C41.01 60.58 40.6 59.34 40.54 59.17C39.92 59.71 39.33 60.2 38.76 60.6C38.17 61.02 37.57 61.36 36.96 61.63C36.35 61.9 35.69 62.11 34.99 62.26C34.28 62.4 33.5 62.46 32.62 62.46C31.55 62.46 30.56 62.33 29.68 62.04C28.78 61.75 28.04 61.33 27.39 60.77C26.75 60.21 26.26 59.51 25.91 58.67C25.56 57.84 25.38 56.87 25.38 55.79C25.38 54.88 25.61 53.98 26.06 53.08C26.53 52.17 27.32 51.36 28.43 50.61C29.55 49.89 31.03 49.29 32.9 48.79C34.76 48.31 37.08 48.04 39.89 47.99C39.89 47.87 39.89 46.85 39.89 46.71C39.89 45.18 39.56 44.07 38.91 43.34C38.27 42.63 37.31 42.27 36.11 42.27C35.2 42.27 34.45 42.37 33.86 42.57C33.26 42.79 32.73 43.01 32.28 43.26C31.84 43.51 31.41 43.74 31.01 43.96C30.6 44.17 30.16 44.28 29.63 44.28C29.17 44.28 28.78 44.16 28.48 43.92C28.18 43.72 27.92 43.43 27.71 43.12C27.63 42.98 27.24 42.29 26.54 41.03C28.57 39.51 30.16 38.55 31.31 38.13C33.05 37.47 34.94 37.16 36.96 37.16C38.42 37.16 39.71 37.4 40.87 37.87C42.01 38.35 42.99 39 43.79 39.85ZM53.14 70C53.45 69.35 55 66.04 57.76 60.13C51.87 46.63 48.59 39.14 47.95 37.64C51.39 37.64 53.31 37.64 53.69 37.64C54.22 37.64 54.61 37.76 54.89 37.99C55.17 38.23 55.38 38.5 55.51 38.83C55.98 39.99 59.7 49.35 60.17 50.52C60.33 50.97 60.49 51.44 60.63 51.9C60.76 52.37 60.9 52.84 61.02 53.29C61.3 52.36 61.64 51.43 62 50.49C62.42 49.33 65.88 39.99 66.3 38.83C66.44 38.48 66.66 38.18 66.99 37.96C67.33 37.75 67.69 37.64 68.08 37.64C68.43 37.64 70.18 37.64 73.33 37.64C65.43 56.27 61.02 66.6 60.14 68.67C59.93 69.11 59.69 69.44 59.38 69.67C59.1 69.88 58.64 70 58 70C57.68 70 56.06 70 53.14 70ZM98.36 49.83C98.36 51.79 98.06 53.53 97.48 55.08C96.88 56.65 96.06 57.96 94.98 59.07C93.91 60.15 92.62 60.99 91.12 61.58C89.62 62.16 87.96 62.45 86.11 62.45C84.26 62.45 82.59 62.16 81.08 61.58C79.57 60.99 78.26 60.15 77.19 59.07C76.11 57.96 75.29 56.65 74.69 55.08C74.1 53.53 73.8 51.79 73.8 49.83C73.8 47.88 74.1 46.14 74.69 44.58C75.29 43.04 76.11 41.71 77.19 40.63C78.26 39.56 79.57 38.72 81.08 38.14C82.59 37.55 84.26 37.25 86.11 37.25C87.96 37.25 89.62 37.55 91.12 38.14C92.62 38.72 93.91 39.56 94.98 40.63C96.06 41.71 96.88 43.04 97.48 44.58C98.06 46.14 98.36 47.88 98.36 49.83ZM86.11 42.19C84.2 42.19 82.79 42.83 81.9 44.12C80.99 45.41 80.54 47.32 80.54 49.85C80.54 52.41 80.99 54.31 81.9 55.6C82.79 56.89 84.2 57.54 86.11 57.54C87.98 57.54 89.37 56.89 90.27 55.6C91.18 54.31 91.62 52.41 91.62 49.85C91.62 47.32 91.18 45.41 90.27 44.12C89.37 42.83 87.98 42.19 86.11 42.19ZM111.81 45.97C112.35 45.24 116.68 39.47 117.22 38.76C117.48 38.38 117.79 38.11 118.13 37.92C118.46 37.73 118.9 37.64 119.42 37.64C119.82 37.64 121.81 37.64 125.41 37.64C121.19 42.99 118.84 45.97 118.38 46.56C117.82 47.3 117.18 47.88 116.45 48.31C116.82 48.58 117.13 48.85 117.4 49.19C117.67 49.53 117.93 49.89 118.18 50.31C118.7 51.09 121.22 55.02 125.76 62.1C122.23 62.1 120.26 62.1 119.88 62.1C119.37 62.1 118.93 62.01 118.57 61.84C118.21 61.68 117.89 61.39 117.67 60.96C117.12 60.06 112.72 52.86 112.16 51.96C111.94 51.58 111.71 51.33 111.48 51.23C111.23 51.12 110.87 51.08 110.4 51.08C110.32 51.08 109.85 51.08 109.03 51.08C109.03 51.8 109.03 55.47 109.03 62.1C105.11 62.1 102.92 62.1 102.48 62.1C102.48 39.26 102.48 26.57 102.48 24.02C102.73 24.27 102.99 24.48 103.29 24.64C104.27 25.25 105.43 25.44 106.55 25.18C107.56 24.94 108.42 24.38 109.03 23.57C109.03 26.66 109.03 34.4 109.03 46.81C109.69 46.81 110.04 46.81 110.12 46.81C110.53 46.81 110.86 46.72 111.1 46.61C111.35 46.49 111.57 46.28 111.81 45.97ZM175.27 49.83C175.27 51.79 174.97 53.53 174.39 55.08C173.8 56.65 172.97 57.96 171.89 59.07C170.81 60.15 169.54 60.99 168.02 61.58C166.52 62.16 164.86 62.45 163.03 62.45C161.18 62.45 159.51 62.16 157.99 61.58C156.47 60.99 155.18 60.15 154.11 59.07C153.03 57.96 152.19 56.65 151.61 55.08C151.01 53.53 150.72 51.79 150.72 49.83C150.72 47.88 151.01 46.14 151.61 44.58C152.19 43.04 153.03 41.71 154.11 40.63C155.18 39.56 156.47 38.72 157.99 38.14C159.51 37.55 161.18 37.25 163.03 37.25C164.86 37.25 166.52 37.55 168.02 38.14C169.54 38.72 170.81 39.56 171.89 40.63C172.97 41.71 173.8 43.04 174.39 44.58C174.97 46.14 175.27 47.88 175.27 49.83ZM163.03 42.19C161.12 42.19 159.71 42.83 158.81 44.12C157.9 45.41 157.45 47.32 157.45 49.85C157.45 52.41 157.9 54.31 158.81 55.6C159.71 56.89 161.12 57.54 163.03 57.54C164.89 57.54 166.27 56.89 167.18 55.6C168.08 54.31 168.54 52.41 168.54 49.85C168.54 47.32 168.08 45.41 167.18 44.12C166.27 42.83 164.89 42.19 163.03 42.19ZM146.39 37.64L146.39 62.1L139.85 62.1L139.85 37.64L146.39 37.64ZM143.05 34.65C142.52 34.65 142.01 34.56 141.53 34.35C141.04 34.12 140.62 33.86 140.25 33.49C139.88 33.13 139.59 32.69 139.39 32.22C139.17 31.76 139.07 31.24 139.07 30.68C139.07 30.13 139.17 29.6 139.39 29.13C139.59 28.65 139.88 28.23 140.25 27.85C140.62 27.49 141.04 27.22 141.53 27.01C142.01 26.8 142.52 26.69 143.05 26.69C143.62 26.69 144.15 26.8 144.67 27.01C145.16 27.22 145.59 27.49 145.96 27.85C146.34 28.23 146.62 28.65 146.85 29.13C147.07 29.6 147.18 30.13 147.18 30.68C147.18 31.24 147.07 31.76 146.85 32.22C146.62 32.69 146.34 33.13 145.96 33.49C145.59 33.86 145.16 34.12 144.67 34.35C144.15 34.56 143.62 34.65 143.05 34.65Z" id="d4MjIqHsU2"/><path d="M14.7 55.71C15.17 55.05 15.52 54.25 15.77 53.25C16.03 52.26 16.16 51.08 16.16 49.69C16.16 48.33 16.05 47.17 15.84 46.22C15.62 45.27 15.33 44.51 14.95 43.92C14.55 43.34 14.07 42.9 13.52 42.65C12.97 42.4 12.36 42.27 11.68 42.27C10.51 42.27 9.56 42.48 8.77 42.95C7.99 43.39 7.25 44.05 6.56 44.92C6.56 45.63 6.56 49.2 6.56 55.65C7.41 56.44 8.07 56.94 8.55 57.13C9.28 57.42 10.05 57.56 10.86 57.56C11.66 57.56 12.38 57.41 13.02 57.12C13.67 56.82 14.23 56.34 14.7 55.71ZM13.93 37.16C15.24 37.16 16.45 37.44 17.55 38C18.64 38.56 19.59 39.37 20.37 40.44C21.18 41.51 21.78 42.82 22.23 44.38C22.68 45.92 22.89 47.69 22.89 49.69C22.89 51.53 22.66 53.21 22.14 54.76C21.65 56.33 20.94 57.69 20.02 58.82C19.11 59.97 18 60.85 16.72 61.48C15.42 62.12 13.99 62.45 12.4 62.45C11.08 62.45 9.95 62.25 9.03 61.86C8.11 61.46 7.28 60.92 6.56 60.25C6.56 60.9 6.56 64.14 6.56 70C6.11 70 3.93 70 0 70C0 50.59 0 39.79 0 37.64C2.43 37.64 3.77 37.64 4.04 37.64C4.85 37.64 5.4 38.01 5.67 38.78C5.71 38.91 5.87 39.6 6.17 40.84C6.85 40.16 7.36 39.65 7.74 39.34C8.3 38.9 8.88 38.51 9.51 38.18C10.14 37.87 10.83 37.61 11.56 37.43C12.29 37.24 13.07 37.16 13.93 37.16ZM31.64 55.45C31.64 56.41 31.92 57.07 32.45 57.47C32.97 57.87 33.71 58.08 34.66 58.08C35.76 58.08 36.7 57.87 37.5 57.48C38.29 57.1 39.1 56.49 39.89 55.67C39.89 55.42 39.89 54.14 39.89 51.87C37.92 52.01 36.6 52.15 35.89 52.28C34.83 52.49 34 52.73 33.37 53.06C32.74 53.36 32.31 53.72 32.04 54.13C31.78 54.54 31.64 54.99 31.64 55.45ZM43.79 39.85C44.58 40.69 45.2 41.71 45.62 42.87C46.05 44.05 46.26 45.33 46.26 46.71C46.26 47.75 46.26 52.87 46.26 62.1C44.46 62.1 43.47 62.1 43.26 62.1C42.65 62.1 42.18 62.01 41.86 61.83C41.55 61.66 41.28 61.3 41.07 60.74C41.01 60.58 40.6 59.34 40.54 59.17C39.92 59.71 39.33 60.2 38.76 60.6C38.17 61.02 37.57 61.36 36.96 61.63C36.35 61.9 35.69 62.11 34.99 62.26C34.28 62.4 33.5 62.46 32.62 62.46C31.55 62.46 30.56 62.33 29.68 62.04C28.78 61.75 28.04 61.33 27.39 60.77C26.75 60.21 26.26 59.51 25.91 58.67C25.56 57.84 25.38 56.87 25.38 55.79C25.38 54.88 25.61 53.98 26.06 53.08C26.53 52.17 27.32 51.36 28.43 50.61C29.55 49.89 31.03 49.29 32.9 48.79C34.76 48.31 37.08 48.04 39.89 47.99C39.89 47.87 39.89 46.85 39.89 46.71C39.89 45.18 39.56 44.07 38.91 43.34C38.27 42.63 37.31 42.27 36.11 42.27C35.2 42.27 34.45 42.37 33.86 42.57C33.26 42.79 32.73 43.01 32.28 43.26C31.84 43.51 31.41 43.74 31.01 43.96C30.6 44.17 30.16 44.28 29.63 44.28C29.17 44.28 28.78 44.16 28.48 43.92C28.18 43.72 27.92 43.43 27.71 43.12C27.63 42.98 27.24 42.29 26.54 41.03C28.57 39.51 30.16 38.55 31.31 38.13C33.05 37.47 34.94 37.16 36.96 37.16C38.42 37.16 39.71 37.4 40.87 37.87C42.01 38.35 42.99 39 43.79 39.85ZM53.14 70C53.45 69.35 55 66.04 57.76 60.13C51.87 46.63 48.59 39.14 47.95 37.64C51.39 37.64 53.31 37.64 53.69 37.64C54.22 37.64 54.61 37.76 54.89 37.99C55.17 38.23 55.38 38.5 55.51 38.83C55.98 39.99 59.7 49.35 60.17 50.52C60.33 50.97 60.49 51.44 60.63 51.9C60.76 52.37 60.9 52.84 61.02 53.29C61.3 52.36 61.64 51.43 62 50.49C62.42 49.33 65.88 39.99 66.3 38.83C66.44 38.48 66.66 38.18 66.99 37.96C67.33 37.75 67.69 37.64 68.08 37.64C68.43 37.64 70.18 37.64 73.33 37.64C65.43 56.27 61.02 66.6 60.14 68.67C59.93 69.11 59.69 69.44 59.38 69.67C59.1 69.88 58.64 70 58 70C57.68 70 56.06 70 53.14 70ZM98.36 49.83C98.36 51.79 98.06 53.53 97.48 55.08C96.88 56.65 96.06 57.96 94.98 59.07C93.91 60.15 92.62 60.99 91.12 61.58C89.62 62.16 87.96 62.45 86.11 62.45C84.26 62.45 82.59 62.16 81.08 61.58C79.57 60.99 78.26 60.15 77.19 59.07C76.11 57.96 75.29 56.65 74.69 55.08C74.1 53.53 73.8 51.79 73.8 49.83C73.8 47.88 74.1 46.14 74.69 44.58C75.29 43.04 76.11 41.71 77.19 40.63C78.26 39.56 79.57 38.72 81.08 38.14C82.59 37.55 84.26 37.25 86.11 37.25C87.96 37.25 89.62 37.55 91.12 38.14C92.62 38.72 93.91 39.56 94.98 40.63C96.06 41.71 96.88 43.04 97.48 44.58C98.06 46.14 98.36 47.88 98.36 49.83ZM86.11 42.19C84.2 42.19 82.79 42.83 81.9 44.12C80.99 45.41 80.54 47.32 80.54 49.85C80.54 52.41 80.99 54.31 81.9 55.6C82.79 56.89 84.2 57.54 86.11 57.54C87.98 57.54 89.37 56.89 90.27 55.6C91.18 54.31 91.62 52.41 91.62 49.85C91.62 47.32 91.18 45.41 90.27 44.12C89.37 42.83 87.98 42.19 86.11 42.19ZM111.81 45.97C112.35 45.24 116.68 39.47 117.22 38.76C117.48 38.38 117.79 38.11 118.13 37.92C118.46 37.73 118.9 37.64 119.42 37.64C119.82 37.64 121.81 37.64 125.41 37.64C121.19 42.99 118.84 45.97 118.38 46.56C117.82 47.3 117.18 47.88 116.45 48.31C116.82 48.58 117.13 48.85 117.4 49.19C117.67 49.53 117.93 49.89 118.18 50.31C118.7 51.09 121.22 55.02 125.76 62.1C122.23 62.1 120.26 62.1 119.88 62.1C119.37 62.1 118.93 62.01 118.57 61.84C118.21 61.68 117.89 61.39 117.67 60.96C117.12 60.06 112.72 52.86 112.16 51.96C111.94 51.58 111.71 51.33 111.48 51.23C111.23 51.12 110.87 51.08 110.4 51.08C110.32 51.08 109.85 51.08 109.03 51.08C109.03 51.8 109.03 55.47 109.03 62.1C105.11 62.1 102.92 62.1 102.48 62.1C102.48 39.26 102.48 26.57 102.48 24.02C102.73 24.27 102.99 24.48 103.29 24.64C104.27 25.25 105.43 25.44 106.55 25.18C107.56 24.94 108.42 24.38 109.03 23.57C109.03 26.66 109.03 34.4 109.03 46.81C109.69 46.81 110.04 46.81 110.12 46.81C110.53 46.81 110.86 46.72 111.1 46.61C111.35 46.49 111.57 46.28 111.81 45.97ZM175.27 49.83C175.27 51.79 174.97 53.53 174.39 55.08C173.8 56.65 172.97 57.96 171.89 59.07C170.81 60.15 169.54 60.99 168.02 61.58C166.52 62.16 164.86 62.45 163.03 62.45C161.18 62.45 159.51 62.16 157.99 61.58C156.47 60.99 155.18 60.15 154.11 59.07C153.03 57.96 152.19 56.65 151.61 55.08C151.01 53.53 150.72 51.79 150.72 49.83C150.72 47.88 151.01 46.14 151.61 44.58C152.19 43.04 153.03 41.71 154.11 40.63C155.18 39.56 156.47 38.72 157.99 38.14C159.51 37.55 161.18 37.25 163.03 37.25C164.86 37.25 166.52 37.55 168.02 38.14C169.54 38.72 170.81 39.56 171.89 40.63C172.97 41.71 173.8 43.04 174.39 44.58C174.97 46.14 175.27 47.88 175.27 49.83ZM163.03 42.19C161.12 42.19 159.71 42.83 158.81 44.12C157.9 45.41 157.45 47.32 157.45 49.85C157.45 52.41 157.9 54.31 158.81 55.6C159.71 56.89 161.12 57.54 163.03 57.54C164.89 57.54 166.27 56.89 167.18 55.6C168.08 54.31 168.54 52.41 168.54 49.85C168.54 47.32 168.08 45.41 167.18 44.12C166.27 42.83 164.89 42.19 163.03 42.19ZM146.39 37.64L146.39 62.1L139.85 62.1L139.85 37.64L146.39 37.64ZM143.05 34.65C142.52 34.65 142.01 34.56 141.53 34.35C141.04 34.12 140.62 33.86 140.25 33.49C139.88 33.13 139.59 32.69 139.39 32.22C139.17 31.76 139.07 31.24 139.07 30.68C139.07 30.13 139.17 29.6 139.39 29.13C139.59 28.65 139.88 28.23 140.25 27.85C140.62 27.49 141.04 27.22 141.53 27.01C142.01 26.8 142.52 26.69 143.05 26.69C143.62 26.69 144.15 26.8 144.67 27.01C145.16 27.22 145.59 27.49 145.96 27.85C146.34 28.23 146.62 28.65 146.85 29.13C147.07 29.6 147.18 30.13 147.18 30.68C147.18 31.24 147.07 31.76 146.85 32.22C146.62 32.69 146.34 33.13 145.96 33.49C145.59 33.86 145.16 34.12 144.67 34.35C144.15 34.56 143.62 34.65 143.05 34.65Z" id="e7Tr3TCFi9"/><path d="M14.7 55.71C15.17 55.05 15.52 54.25 15.77 53.25C16.03 52.26 16.16 51.08 16.16 49.69C16.16 48.33 16.05 47.17 15.84 46.22C15.62 45.27 15.33 44.51 14.95 43.92C14.55 43.34 14.07 42.9 13.52 42.65C12.97 42.4 12.36 42.27 11.68 42.27C10.51 42.27 9.56 42.48 8.77 42.95C7.99 43.39 7.25 44.05 6.56 44.92C6.56 45.63 6.56 49.2 6.56 55.65C7.41 56.44 8.07 56.94 8.55 57.13C9.28 57.42 10.05 57.56 10.86 57.56C11.66 57.56 12.38 57.41 13.02 57.12C13.67 56.82 14.23 56.34 14.7 55.71ZM13.93 37.16C15.24 37.16 16.45 37.44 17.55 38C18.64 38.56 19.59 39.37 20.37 40.44C21.18 41.51 21.78 42.82 22.23 44.38C22.68 45.92 22.89 47.69 22.89 49.69C22.89 51.53 22.66 53.21 22.14 54.76C21.65 56.33 20.94 57.69 20.02 58.82C19.11 59.97 18 60.85 16.72 61.48C15.42 62.12 13.99 62.45 12.4 62.45C11.08 62.45 9.95 62.25 9.03 61.86C8.11 61.46 7.28 60.92 6.56 60.25C6.56 60.9 6.56 64.14 6.56 70C6.11 70 3.93 70 0 70C0 50.59 0 39.79 0 37.64C2.43 37.64 3.77 37.64 4.04 37.64C4.85 37.64 5.4 38.01 5.67 38.78C5.71 38.91 5.87 39.6 6.17 40.84C6.85 40.16 7.36 39.65 7.74 39.34C8.3 38.9 8.88 38.51 9.51 38.18C10.14 37.87 10.83 37.61 11.56 37.43C12.29 37.24 13.07 37.16 13.93 37.16ZM31.64 55.45C31.64 56.41 31.92 57.07 32.45 57.47C32.97 57.87 33.71 58.08 34.66 58.08C35.76 58.08 36.7 57.87 37.5 57.48C38.29 57.1 39.1 56.49 39.89 55.67C39.89 55.42 39.89 54.14 39.89 51.87C37.92 52.01 36.6 52.15 35.89 52.28C34.83 52.49 34 52.73 33.37 53.06C32.74 53.36 32.31 53.72 32.04 54.13C31.78 54.54 31.64 54.99 31.64 55.45ZM43.79 39.85C44.58 40.69 45.2 41.71 45.62 42.87C46.05 44.05 46.26 45.33 46.26 46.71C46.26 47.75 46.26 52.87 46.26 62.1C44.46 62.1 43.47 62.1 43.26 62.1C42.65 62.1 42.18 62.01 41.86 61.83C41.55 61.66 41.28 61.3 41.07 60.74C41.01 60.58 40.6 59.34 40.54 59.17C39.92 59.71 39.33 60.2 38.76 60.6C38.17 61.02 37.57 61.36 36.96 61.63C36.35 61.9 35.69 62.11 34.99 62.26C34.28 62.4 33.5 62.46 32.62 62.46C31.55 62.46 30.56 62.33 29.68 62.04C28.78 61.75 28.04 61.33 27.39 60.77C26.75 60.21 26.26 59.51 25.91 58.67C25.56 57.84 25.38 56.87 25.38 55.79C25.38 54.88 25.61 53.98 26.06 53.08C26.53 52.17 27.32 51.36 28.43 50.61C29.55 49.89 31.03 49.29 32.9 48.79C34.76 48.31 37.08 48.04 39.89 47.99C39.89 47.87 39.89 46.85 39.89 46.71C39.89 45.18 39.56 44.07 38.91 43.34C38.27 42.63 37.31 42.27 36.11 42.27C35.2 42.27 34.45 42.37 33.86 42.57C33.26 42.79 32.73 43.01 32.28 43.26C31.84 43.51 31.41 43.74 31.01 43.96C30.6 44.17 30.16 44.28 29.63 44.28C29.17 44.28 28.78 44.16 28.48 43.92C28.18 43.72 27.92 43.43 27.71 43.12C27.63 42.98 27.24 42.29 26.54 41.03C28.57 39.51 30.16 38.55 31.31 38.13C33.05 37.47 34.94 37.16 36.96 37.16C38.42 37.16 39.71 37.4 40.87 37.87C42.01 38.35 42.99 39 43.79 39.85ZM53.14 70C53.45 69.35 55 66.04 57.76 60.13C51.87 46.63 48.59 39.14 47.95 37.64C51.39 37.64 53.31 37.64 53.69 37.64C54.22 37.64 54.61 37.76 54.89 37.99C55.17 38.23 55.38 38.5 55.51 38.83C55.98 39.99 59.7 49.35 60.17 50.52C60.33 50.97 60.49 51.44 60.63 51.9C60.76 52.37 60.9 52.84 61.02 53.29C61.3 52.36 61.64 51.43 62 50.49C62.42 49.33 65.88 39.99 66.3 38.83C66.44 38.48 66.66 38.18 66.99 37.96C67.33 37.75 67.69 37.64 68.08 37.64C68.43 37.64 70.18 37.64 73.33 37.64C65.43 56.27 61.02 66.6 60.14 68.67C59.93 69.11 59.69 69.44 59.38 69.67C59.1 69.88 58.64 70 58 70C57.68 70 56.06 70 53.14 70ZM98.36 49.83C98.36 51.79 98.06 53.53 97.48 55.08C96.88 56.65 96.06 57.96 94.98 59.07C93.91 60.15 92.62 60.99 91.12 61.58C89.62 62.16 87.96 62.45 86.11 62.45C84.26 62.45 82.59 62.16 81.08 61.58C79.57 60.99 78.26 60.15 77.19 59.07C76.11 57.96 75.29 56.65 74.69 55.08C74.1 53.53 73.8 51.79 73.8 49.83C73.8 47.88 74.1 46.14 74.69 44.58C75.29 43.04 76.11 41.71 77.19 40.63C78.26 39.56 79.57 38.72 81.08 38.14C82.59 37.55 84.26 37.25 86.11 37.25C87.96 37.25 89.62 37.55 91.12 38.14C92.62 38.72 93.91 39.56 94.98 40.63C96.06 41.71 96.88 43.04 97.48 44.58C98.06 46.14 98.36 47.88 98.36 49.83ZM86.11 42.19C84.2 42.19 82.79 42.83 81.9 44.12C80.99 45.41 80.54 47.32 80.54 49.85C80.54 52.41 80.99 54.31 81.9 55.6C82.79 56.89 84.2 57.54 86.11 57.54C87.98 57.54 89.37 56.89 90.27 55.6C91.18 54.31 91.62 52.41 91.62 49.85C91.62 47.32 91.18 45.41 90.27 44.12C89.37 42.83 87.98 42.19 86.11 42.19ZM111.81 45.97C112.35 45.24 116.68 39.47 117.22 38.76C117.48 38.38 117.79 38.11 118.13 37.92C118.46 37.73 118.9 37.64 119.42 37.64C119.82 37.64 121.81 37.64 125.41 37.64C121.19 42.99 118.84 45.97 118.38 46.56C117.82 47.3 117.18 47.88 116.45 48.31C116.82 48.58 117.13 48.85 117.4 49.19C117.67 49.53 117.93 49.89 118.18 50.31C118.7 51.09 121.22 55.02 125.76 62.1C122.23 62.1 120.26 62.1 119.88 62.1C119.37 62.1 118.93 62.01 118.57 61.84C118.21 61.68 117.89 61.39 117.67 60.96C117.12 60.06 112.72 52.86 112.16 51.96C111.94 51.58 111.71 51.33 111.48 51.23C111.23 51.12 110.87 51.08 110.4 51.08C110.32 51.08 109.85 51.08 109.03 51.08C109.03 51.8 109.03 55.47 109.03 62.1C105.11 62.1 102.92 62.1 102.48 62.1C102.48 39.26 102.48 26.57 102.48 24.02C102.73 24.27 102.99 24.48 103.29 24.64C104.27 25.25 105.43 25.44 106.55 25.18C107.56 24.94 108.42 24.38 109.03 23.57C109.03 26.66 109.03 34.4 109.03 46.81C109.69 46.81 110.04 46.81 110.12 46.81C110.53 46.81 110.86 46.72 111.1 46.61C111.35 46.49 111.57 46.28 111.81 45.97ZM175.27 49.83C175.27 51.79 174.97 53.53 174.39 55.08C173.8 56.65 172.97 57.96 171.89 59.07C170.81 60.15 169.54 60.99 168.02 61.58C166.52 62.16 164.86 62.45 163.03 62.45C161.18 62.45 159.51 62.16 157.99 61.58C156.47 60.99 155.18 60.15 154.11 59.07C153.03 57.96 152.19 56.65 151.61 55.08C151.01 53.53 150.72 51.79 150.72 49.83C150.72 47.88 151.01 46.14 151.61 44.58C152.19 43.04 153.03 41.71 154.11 40.63C155.18 39.56 156.47 38.72 157.99 38.14C159.51 37.55 161.18 37.25 163.03 37.25C164.86 37.25 166.52 37.55 168.02 38.14C169.54 38.72 170.81 39.56 171.89 40.63C172.97 41.71 173.8 43.04 174.39 44.58C174.97 46.14 175.27 47.88 175.27 49.83ZM163.03 42.19C161.12 42.19 159.71 42.83 158.81 44.12C157.9 45.41 157.45 47.32 157.45 49.85C157.45 52.41 157.9 54.31 158.81 55.6C159.71 56.89 161.12 57.54 163.03 57.54C164.89 57.54 166.27 56.89 167.18 55.6C168.08 54.31 168.54 52.41 168.54 49.85C168.54 47.32 168.08 45.41 167.18 44.12C166.27 42.83 164.89 42.19 163.03 42.19ZM146.39 37.64L146.39 62.1L139.85 62.1L139.85 37.64L146.39 37.64ZM143.05 34.65C142.52 34.65 142.01 34.56 141.53 34.35C141.04 34.12 140.62 33.86 140.25 33.49C139.88 33.13 139.59 32.69 139.39 32.22C139.17 31.76 139.07 31.24 139.07 30.68C139.07 30.13 139.17 29.6 139.39 29.13C139.59 28.65 139.88 28.23 140.25 27.85C140.62 27.49 141.04 27.22 141.53 27.01C142.01 26.8 142.52 26.69 143.05 26.69C143.62 26.69 144.15 26.8 144.67 27.01C145.16 27.22 145.59 27.49 145.96 27.85C146.34 28.23 146.62 28.65 146.85 29.13C147.07 29.6 147.18 30.13 147.18 30.68C147.18 31.24 147.07 31.76 146.85 32.22C146.62 32.69 146.34 33.13 145.96 33.49C145.59 33.86 145.16 34.12 144.67 34.35C144.15 34.56 143.62 34.65 143.05 34.65Z" id="hwGSm9XML"/><path d="M14.7 55.71C15.17 55.05 15.52 54.25 15.77 53.25C16.03 52.26 16.16 51.08 16.16 49.69C16.16 48.33 16.05 47.17 15.84 46.22C15.62 45.27 15.33 44.51 14.95 43.92C14.55 43.34 14.07 42.9 13.52 42.65C12.97 42.4 12.36 42.27 11.68 42.27C10.51 42.27 9.56 42.48 8.77 42.95C7.99 43.39 7.25 44.05 6.56 44.92C6.56 45.63 6.56 49.2 6.56 55.65C7.41 56.44 8.07 56.94 8.55 57.13C9.28 57.42 10.05 57.56 10.86 57.56C11.66 57.56 12.38 57.41 13.02 57.12C13.67 56.82 14.23 56.34 14.7 55.71ZM13.93 37.16C15.24 37.16 16.45 37.44 17.55 38C18.64 38.56 19.59 39.37 20.37 40.44C21.18 41.51 21.78 42.82 22.23 44.38C22.68 45.92 22.89 47.69 22.89 49.69C22.89 51.53 22.66 53.21 22.14 54.76C21.65 56.33 20.94 57.69 20.02 58.82C19.11 59.97 18 60.85 16.72 61.48C15.42 62.12 13.99 62.45 12.4 62.45C11.08 62.45 9.95 62.25 9.03 61.86C8.11 61.46 7.28 60.92 6.56 60.25C6.56 60.9 6.56 64.14 6.56 70C6.11 70 3.93 70 0 70C0 50.59 0 39.79 0 37.64C2.43 37.64 3.77 37.64 4.04 37.64C4.85 37.64 5.4 38.01 5.67 38.78C5.71 38.91 5.87 39.6 6.17 40.84C6.85 40.16 7.36 39.65 7.74 39.34C8.3 38.9 8.88 38.51 9.51 38.18C10.14 37.87 10.83 37.61 11.56 37.43C12.29 37.24 13.07 37.16 13.93 37.16ZM31.64 55.45C31.64 56.41 31.92 57.07 32.45 57.47C32.97 57.87 33.71 58.08 34.66 58.08C35.76 58.08 36.7 57.87 37.5 57.48C38.29 57.1 39.1 56.49 39.89 55.67C39.89 55.42 39.89 54.14 39.89 51.87C37.92 52.01 36.6 52.15 35.89 52.28C34.83 52.49 34 52.73 33.37 53.06C32.74 53.36 32.31 53.72 32.04 54.13C31.78 54.54 31.64 54.99 31.64 55.45ZM43.79 39.85C44.58 40.69 45.2 41.71 45.62 42.87C46.05 44.05 46.26 45.33 46.26 46.71C46.26 47.75 46.26 52.87 46.26 62.1C44.46 62.1 43.47 62.1 43.26 62.1C42.65 62.1 42.18 62.01 41.86 61.83C41.55 61.66 41.28 61.3 41.07 60.74C41.01 60.58 40.6 59.34 40.54 59.17C39.92 59.71 39.33 60.2 38.76 60.6C38.17 61.02 37.57 61.36 36.96 61.63C36.35 61.9 35.69 62.11 34.99 62.26C34.28 62.4 33.5 62.46 32.62 62.46C31.55 62.46 30.56 62.33 29.68 62.04C28.78 61.75 28.04 61.33 27.39 60.77C26.75 60.21 26.26 59.51 25.91 58.67C25.56 57.84 25.38 56.87 25.38 55.79C25.38 54.88 25.61 53.98 26.06 53.08C26.53 52.17 27.32 51.36 28.43 50.61C29.55 49.89 31.03 49.29 32.9 48.79C34.76 48.31 37.08 48.04 39.89 47.99C39.89 47.87 39.89 46.85 39.89 46.71C39.89 45.18 39.56 44.07 38.91 43.34C38.27 42.63 37.31 42.27 36.11 42.27C35.2 42.27 34.45 42.37 33.86 42.57C33.26 42.79 32.73 43.01 32.28 43.26C31.84 43.51 31.41 43.74 31.01 43.96C30.6 44.17 30.16 44.28 29.63 44.28C29.17 44.28 28.78 44.16 28.48 43.92C28.18 43.72 27.92 43.43 27.71 43.12C27.63 42.98 27.24 42.29 26.54 41.03C28.57 39.51 30.16 38.55 31.31 38.13C33.05 37.47 34.94 37.16 36.96 37.16C38.42 37.16 39.71 37.4 40.87 37.87C42.01 38.35 42.99 39 43.79 39.85ZM53.14 70C53.45 69.35 55 66.04 57.76 60.13C51.87 46.63 48.59 39.14 47.95 37.64C51.39 37.64 53.31 37.64 53.69 37.64C54.22 37.64 54.61 37.76 54.89 37.99C55.17 38.23 55.38 38.5 55.51 38.83C55.98 39.99 59.7 49.35 60.17 50.52C60.33 50.97 60.49 51.44 60.63 51.9C60.76 52.37 60.9 52.84 61.02 53.29C61.3 52.36 61.64 51.43 62 50.49C62.42 49.33 65.88 39.99 66.3 38.83C66.44 38.48 66.66 38.18 66.99 37.96C67.33 37.75 67.69 37.64 68.08 37.64C68.43 37.64 70.18 37.64 73.33 37.64C65.43 56.27 61.02 66.6 60.14 68.67C59.93 69.11 59.69 69.44 59.38 69.67C59.1 69.88 58.64 70 58 70C57.68 70 56.06 70 53.14 70ZM98.36 49.83C98.36 51.79 98.06 53.53 97.48 55.08C96.88 56.65 96.06 57.96 94.98 59.07C93.91 60.15 92.62 60.99 91.12 61.58C89.62 62.16 87.96 62.45 86.11 62.45C84.26 62.45 82.59 62.16 81.08 61.58C79.57 60.99 78.26 60.15 77.19 59.07C76.11 57.96 75.29 56.65 74.69 55.08C74.1 53.53 73.8 51.79 73.8 49.83C73.8 47.88 74.1 46.14 74.69 44.58C75.29 43.04 76.11 41.71 77.19 40.63C78.26 39.56 79.57 38.72 81.08 38.14C82.59 37.55 84.26 37.25 86.11 37.25C87.96 37.25 89.62 37.55 91.12 38.14C92.62 38.72 93.91 39.56 94.98 40.63C96.06 41.71 96.88 43.04 97.48 44.58C98.06 46.14 98.36 47.88 98.36 49.83ZM86.11 42.19C84.2 42.19 82.79 42.83 81.9 44.12C80.99 45.41 80.54 47.32 80.54 49.85C80.54 52.41 80.99 54.31 81.9 55.6C82.79 56.89 84.2 57.54 86.11 57.54C87.98 57.54 89.37 56.89 90.27 55.6C91.18 54.31 91.62 52.41 91.62 49.85C91.62 47.32 91.18 45.41 90.27 44.12C89.37 42.83 87.98 42.19 86.11 42.19ZM111.81 45.97C112.35 45.24 116.68 39.47 117.22 38.76C117.48 38.38 117.79 38.11 118.13 37.92C118.46 37.73 118.9 37.64 119.42 37.64C119.82 37.64 121.81 37.64 125.41 37.64C121.19 42.99 118.84 45.97 118.38 46.56C117.82 47.3 117.18 47.88 116.45 48.31C116.82 48.58 117.13 48.85 117.4 49.19C117.67 49.53 117.93 49.89 118.18 50.31C118.7 51.09 121.22 55.02 125.76 62.1C122.23 62.1 120.26 62.1 119.88 62.1C119.37 62.1 118.93 62.01 118.57 61.84C118.21 61.68 117.89 61.39 117.67 60.96C117.12 60.06 112.72 52.86 112.16 51.96C111.94 51.58 111.71 51.33 111.48 51.23C111.23 51.12 110.87 51.08 110.4 51.08C110.32 51.08 109.85 51.08 109.03 51.08C109.03 51.8 109.03 55.47 109.03 62.1C105.11 62.1 102.92 62.1 102.48 62.1C102.48 39.26 102.48 26.57 102.48 24.02C102.73 24.27 102.99 24.48 103.29 24.64C104.27 25.25 105.43 25.44 106.55 25.18C107.56 24.94 108.42 24.38 109.03 23.57C109.03 26.66 109.03 34.4 109.03 46.81C109.69 46.81 110.04 46.81 110.12 46.81C110.53 46.81 110.86 46.72 111.1 46.61C111.35 46.49 111.57 46.28 111.81 45.97ZM175.27 49.83C175.27 51.79 174.97 53.53 174.39 55.08C173.8 56.65 172.97 57.96 171.89 59.07C170.81 60.15 169.54 60.99 168.02 61.58C166.52 62.16 164.86 62.45 163.03 62.45C161.18 62.45 159.51 62.16 157.99 61.58C156.47 60.99 155.18 60.15 154.11 59.07C153.03 57.96 152.19 56.65 151.61 55.08C151.01 53.53 150.72 51.79 150.72 49.83C150.72 47.88 151.01 46.14 151.61 44.58C152.19 43.04 153.03 41.71 154.11 40.63C155.18 39.56 156.47 38.72 157.99 38.14C159.51 37.55 161.18 37.25 163.03 37.25C164.86 37.25 166.52 37.55 168.02 38.14C169.54 38.72 170.81 39.56 171.89 40.63C172.97 41.71 173.8 43.04 174.39 44.58C174.97 46.14 175.27 47.88 175.27 49.83ZM163.03 42.19C161.12 42.19 159.71 42.83 158.81 44.12C157.9 45.41 157.45 47.32 157.45 49.85C157.45 52.41 157.9 54.31 158.81 55.6C159.71 56.89 161.12 57.54 163.03 57.54C164.89 57.54 166.27 56.89 167.18 55.6C168.08 54.31 168.54 52.41 168.54 49.85C168.54 47.32 168.08 45.41 167.18 44.12C166.27 42.83 164.89 42.19 163.03 42.19ZM146.39 37.64L146.39 62.1L139.85 62.1L139.85 37.64L146.39 37.64ZM143.05 34.65C142.52 34.65 142.01 34.56 141.53 34.35C141.04 34.12 140.62 33.86 140.25 33.49C139.88 33.13 139.59 32.69 139.39 32.22C139.17 31.76 139.07 31.24 139.07 30.68C139.07 30.13 139.17 29.6 139.39 29.13C139.59 28.65 139.88 28.23 140.25 27.85C140.62 27.49 141.04 27.22 141.53 27.01C142.01 26.8 142.52 26.69 143.05 26.69C143.62 26.69 144.15 26.8 144.67 27.01C145.16 27.22 145.59 27.49 145.96 27.85C146.34 28.23 146.62 28.65 146.85 29.13C147.07 29.6 147.18 30.13 147.18 30.68C147.18 31.24 147.07 31.76 146.85 32.22C146.62 32.69 146.34 33.13 145.96 33.49C145.59 33.86 145.16 34.12 144.67 34.35C144.15 34.56 143.62 34.65 143.05 34.65Z" id="iMY2LSTo8"/><path d="M14.7 55.71C15.17 55.05 15.52 54.25 15.77 53.25C16.03 52.26 16.16 51.08 16.16 49.69C16.16 48.33 16.05 47.17 15.84 46.22C15.62 45.27 15.33 44.51 14.95 43.92C14.55 43.34 14.07 42.9 13.52 42.65C12.97 42.4 12.36 42.27 11.68 42.27C10.51 42.27 9.56 42.48 8.77 42.95C7.99 43.39 7.25 44.05 6.56 44.92C6.56 45.63 6.56 49.2 6.56 55.65C7.41 56.44 8.07 56.94 8.55 57.13C9.28 57.42 10.05 57.56 10.86 57.56C11.66 57.56 12.38 57.41 13.02 57.12C13.67 56.82 14.23 56.34 14.7 55.71ZM13.93 37.16C15.24 37.16 16.45 37.44 17.55 38C18.64 38.56 19.59 39.37 20.37 40.44C21.18 41.51 21.78 42.82 22.23 44.38C22.68 45.92 22.89 47.69 22.89 49.69C22.89 51.53 22.66 53.21 22.14 54.76C21.65 56.33 20.94 57.69 20.02 58.82C19.11 59.97 18 60.85 16.72 61.48C15.42 62.12 13.99 62.45 12.4 62.45C11.08 62.45 9.95 62.25 9.03 61.86C8.11 61.46 7.28 60.92 6.56 60.25C6.56 60.9 6.56 64.14 6.56 70C6.11 70 3.93 70 0 70C0 50.59 0 39.79 0 37.64C2.43 37.64 3.77 37.64 4.04 37.64C4.85 37.64 5.4 38.01 5.67 38.78C5.71 38.91 5.87 39.6 6.17 40.84C6.85 40.16 7.36 39.65 7.74 39.34C8.3 38.9 8.88 38.51 9.51 38.18C10.14 37.87 10.83 37.61 11.56 37.43C12.29 37.24 13.07 37.16 13.93 37.16ZM31.64 55.45C31.64 56.41 31.92 57.07 32.45 57.47C32.97 57.87 33.71 58.08 34.66 58.08C35.76 58.08 36.7 57.87 37.5 57.48C38.29 57.1 39.1 56.49 39.89 55.67C39.89 55.42 39.89 54.14 39.89 51.87C37.92 52.01 36.6 52.15 35.89 52.28C34.83 52.49 34 52.73 33.37 53.06C32.74 53.36 32.31 53.72 32.04 54.13C31.78 54.54 31.64 54.99 31.64 55.45ZM43.79 39.85C44.58 40.69 45.2 41.71 45.62 42.87C46.05 44.05 46.26 45.33 46.26 46.71C46.26 47.75 46.26 52.87 46.26 62.1C44.46 62.1 43.47 62.1 43.26 62.1C42.65 62.1 42.18 62.01 41.86 61.83C41.55 61.66 41.28 61.3 41.07 60.74C41.01 60.58 40.6 59.34 40.54 59.17C39.92 59.71 39.33 60.2 38.76 60.6C38.17 61.02 37.57 61.36 36.96 61.63C36.35 61.9 35.69 62.11 34.99 62.26C34.28 62.4 33.5 62.46 32.62 62.46C31.55 62.46 30.56 62.33 29.68 62.04C28.78 61.75 28.04 61.33 27.39 60.77C26.75 60.21 26.26 59.51 25.91 58.67C25.56 57.84 25.38 56.87 25.38 55.79C25.38 54.88 25.61 53.98 26.06 53.08C26.53 52.17 27.32 51.36 28.43 50.61C29.55 49.89 31.03 49.29 32.9 48.79C34.76 48.31 37.08 48.04 39.89 47.99C39.89 47.87 39.89 46.85 39.89 46.71C39.89 45.18 39.56 44.07 38.91 43.34C38.27 42.63 37.31 42.27 36.11 42.27C35.2 42.27 34.45 42.37 33.86 42.57C33.26 42.79 32.73 43.01 32.28 43.26C31.84 43.51 31.41 43.74 31.01 43.96C30.6 44.17 30.16 44.28 29.63 44.28C29.17 44.28 28.78 44.16 28.48 43.92C28.18 43.72 27.92 43.43 27.71 43.12C27.63 42.98 27.24 42.29 26.54 41.03C28.57 39.51 30.16 38.55 31.31 38.13C33.05 37.47 34.94 37.16 36.96 37.16C38.42 37.16 39.71 37.4 40.87 37.87C42.01 38.35 42.99 39 43.79 39.85ZM53.14 70C53.45 69.35 55 66.04 57.76 60.13C51.87 46.63 48.59 39.14 47.95 37.64C51.39 37.64 53.31 37.64 53.69 37.64C54.22 37.64 54.61 37.76 54.89 37.99C55.17 38.23 55.38 38.5 55.51 38.83C55.98 39.99 59.7 49.35 60.17 50.52C60.33 50.97 60.49 51.44 60.63 51.9C60.76 52.37 60.9 52.84 61.02 53.29C61.3 52.36 61.64 51.43 62 50.49C62.42 49.33 65.88 39.99 66.3 38.83C66.44 38.48 66.66 38.18 66.99 37.96C67.33 37.75 67.69 37.64 68.08 37.64C68.43 37.64 70.18 37.64 73.33 37.64C65.43 56.27 61.02 66.6 60.14 68.67C59.93 69.11 59.69 69.44 59.38 69.67C59.1 69.88 58.64 70 58 70C57.68 70 56.06 70 53.14 70ZM98.36 49.83C98.36 51.79 98.06 53.53 97.48 55.08C96.88 56.65 96.06 57.96 94.98 59.07C93.91 60.15 92.62 60.99 91.12 61.58C89.62 62.16 87.96 62.45 86.11 62.45C84.26 62.45 82.59 62.16 81.08 61.58C79.57 60.99 78.26 60.15 77.19 59.07C76.11 57.96 75.29 56.65 74.69 55.08C74.1 53.53 73.8 51.79 73.8 49.83C73.8 47.88 74.1 46.14 74.69 44.58C75.29 43.04 76.11 41.71 77.19 40.63C78.26 39.56 79.57 38.72 81.08 38.14C82.59 37.55 84.26 37.25 86.11 37.25C87.96 37.25 89.62 37.55 91.12 38.14C92.62 38.72 93.91 39.56 94.98 40.63C96.06 41.71 96.88 43.04 97.48 44.58C98.06 46.14 98.36 47.88 98.36 49.83ZM86.11 42.19C84.2 42.19 82.79 42.83 81.9 44.12C80.99 45.41 80.54 47.32 80.54 49.85C80.54 52.41 80.99 54.31 81.9 55.6C82.79 56.89 84.2 57.54 86.11 57.54C87.98 57.54 89.37 56.89 90.27 55.6C91.18 54.31 91.62 52.41 91.62 49.85C91.62 47.32 91.18 45.41 90.27 44.12C89.37 42.83 87.98 42.19 86.11 42.19ZM111.81 45.97C112.35 45.24 116.68 39.47 117.22 38.76C117.48 38.38 117.79 38.11 118.13 37.92C118.46 37.73 118.9 37.64 119.42 37.64C119.82 37.64 121.81 37.64 125.41 37.64C121.19 42.99 118.84 45.97 118.38 46.56C117.82 47.3 117.18 47.88 116.45 48.31C116.82 48.58 117.13 48.85 117.4 49.19C117.67 49.53 117.93 49.89 118.18 50.31C118.7 51.09 121.22 55.02 125.76 62.1C122.23 62.1 120.26 62.1 119.88 62.1C119.37 62.1 118.93 62.01 118.57 61.84C118.21 61.68 117.89 61.39 117.67 60.96C117.12 60.06 112.72 52.86 112.16 51.96C111.94 51.58 111.71 51.33 111.48 51.23C111.23 51.12 110.87 51.08 110.4 51.08C110.32 51.08 109.85 51.08 109.03 51.08C109.03 51.8 109.03 55.47 109.03 62.1C105.11 62.1 102.92 62.1 102.48 62.1C102.48 39.26 102.48 26.57 102.48 24.02C102.73 24.27 102.99 24.48 103.29 24.64C104.27 25.25 105.43 25.44 106.55 25.18C107.56 24.94 108.42 24.38 109.03 23.57C109.03 26.66 109.03 34.4 109.03 46.81C109.69 46.81 110.04 46.81 110.12 46.81C110.53 46.81 110.86 46.72 111.1 46.61C111.35 46.49 111.57 46.28 111.81 45.97ZM175.27 49.83C175.27 51.79 174.97 53.53 174.39 55.08C173.8 56.65 172.97 57.96 171.89 59.07C170.81 60.15 169.54 60.99 168.02 61.58C166.52 62.16 164.86 62.45 163.03 62.45C161.18 62.45 159.51 62.16 157.99 61.58C156.47 60.99 155.18 60.15 154.11 59.07C153.03 57.96 152.19 56.65 151.61 55.08C151.01 53.53 150.72 51.79 150.72 49.83C150.72 47.88 151.01 46.14 151.61 44.58C152.19 43.04 153.03 41.71 154.11 40.63C155.18 39.56 156.47 38.72 157.99 38.14C159.51 37.55 161.18 37.25 163.03 37.25C164.86 37.25 166.52 37.55 168.02 38.14C169.54 38.72 170.81 39.56 171.89 40.63C172.97 41.71 173.8 43.04 174.39 44.58C174.97 46.14 175.27 47.88 175.27 49.83ZM163.03 42.19C161.12 42.19 159.71 42.83 158.81 44.12C157.9 45.41 157.45 47.32 157.45 49.85C157.45 52.41 157.9 54.31 158.81 55.6C159.71 56.89 161.12 57.54 163.03 57.54C164.89 57.54 166.27 56.89 167.18 55.6C168.08 54.31 168.54 52.41 168.54 49.85C168.54 47.32 168.08 45.41 167.18 44.12C166.27 42.83 164.89 42.19 163.03 42.19ZM146.39 37.64L146.39 62.1L139.85 62.1L139.85 37.64L146.39 37.64ZM143.05 34.65C142.52 34.65 142.01 34.56 141.53 34.35C141.04 34.12 140.62 33.86 140.25 33.49C139.88 33.13 139.59 32.69 139.39 32.22C139.17 31.76 139.07 31.24 139.07 30.68C139.07 30.13 139.17 29.6 139.39 29.13C139.59 28.65 139.88 28.23 140.25 27.85C140.62 27.49 141.04 27.22 141.53 27.01C142.01 26.8 142.52 26.69 143.05 26.69C143.62 26.69 144.15 26.8 144.67 27.01C145.16 27.22 145.59 27.49 145.96 27.85C146.34 28.23 146.62 28.65 146.85 29.13C147.07 29.6 147.18 30.13 147.18 30.68C147.18 31.24 147.07 31.76 146.85 32.22C146.62 32.69 146.34 33.13 145.96 33.49C145.59 33.86 145.16 34.12 144.67 34.35C144.15 34.56 143.62 34.65 143.05 34.65Z" id="fQecow7l4"/><path d="M14.7 55.71C15.17 55.05 15.52 54.25 15.77 53.25C16.03 52.26 16.16 51.08 16.16 49.69C16.16 48.33 16.05 47.17 15.84 46.22C15.62 45.27 15.33 44.51 14.95 43.92C14.55 43.34 14.07 42.9 13.52 42.65C12.97 42.4 12.36 42.27 11.68 42.27C10.51 42.27 9.56 42.48 8.77 42.95C7.99 43.39 7.25 44.05 6.56 44.92C6.56 45.63 6.56 49.2 6.56 55.65C7.41 56.44 8.07 56.94 8.55 57.13C9.28 57.42 10.05 57.56 10.86 57.56C11.66 57.56 12.38 57.41 13.02 57.12C13.67 56.82 14.23 56.34 14.7 55.71ZM13.93 37.16C15.24 37.16 16.45 37.44 17.55 38C18.64 38.56 19.59 39.37 20.37 40.44C21.18 41.51 21.78 42.82 22.23 44.38C22.68 45.92 22.89 47.69 22.89 49.69C22.89 51.53 22.66 53.21 22.14 54.76C21.65 56.33 20.94 57.69 20.02 58.82C19.11 59.97 18 60.85 16.72 61.48C15.42 62.12 13.99 62.45 12.4 62.45C11.08 62.45 9.95 62.25 9.03 61.86C8.11 61.46 7.28 60.92 6.56 60.25C6.56 60.9 6.56 64.14 6.56 70C6.11 70 3.93 70 0 70C0 50.59 0 39.79 0 37.64C2.43 37.64 3.77 37.64 4.04 37.64C4.85 37.64 5.4 38.01 5.67 38.78C5.71 38.91 5.87 39.6 6.17 40.84C6.85 40.16 7.36 39.65 7.74 39.34C8.3 38.9 8.88 38.51 9.51 38.18C10.14 37.87 10.83 37.61 11.56 37.43C12.29 37.24 13.07 37.16 13.93 37.16ZM31.64 55.45C31.64 56.41 31.92 57.07 32.45 57.47C32.97 57.87 33.71 58.08 34.66 58.08C35.76 58.08 36.7 57.87 37.5 57.48C38.29 57.1 39.1 56.49 39.89 55.67C39.89 55.42 39.89 54.14 39.89 51.87C37.92 52.01 36.6 52.15 35.89 52.28C34.83 52.49 34 52.73 33.37 53.06C32.74 53.36 32.31 53.72 32.04 54.13C31.78 54.54 31.64 54.99 31.64 55.45ZM43.79 39.85C44.58 40.69 45.2 41.71 45.62 42.87C46.05 44.05 46.26 45.33 46.26 46.71C46.26 47.75 46.26 52.87 46.26 62.1C44.46 62.1 43.47 62.1 43.26 62.1C42.65 62.1 42.18 62.01 41.86 61.83C41.55 61.66 41.28 61.3 41.07 60.74C41.01 60.58 40.6 59.34 40.54 59.17C39.92 59.71 39.33 60.2 38.76 60.6C38.17 61.02 37.57 61.36 36.96 61.63C36.35 61.9 35.69 62.11 34.99 62.26C34.28 62.4 33.5 62.46 32.62 62.46C31.55 62.46 30.56 62.33 29.68 62.04C28.78 61.75 28.04 61.33 27.39 60.77C26.75 60.21 26.26 59.51 25.91 58.67C25.56 57.84 25.38 56.87 25.38 55.79C25.38 54.88 25.61 53.98 26.06 53.08C26.53 52.17 27.32 51.36 28.43 50.61C29.55 49.89 31.03 49.29 32.9 48.79C34.76 48.31 37.08 48.04 39.89 47.99C39.89 47.87 39.89 46.85 39.89 46.71C39.89 45.18 39.56 44.07 38.91 43.34C38.27 42.63 37.31 42.27 36.11 42.27C35.2 42.27 34.45 42.37 33.86 42.57C33.26 42.79 32.73 43.01 32.28 43.26C31.84 43.51 31.41 43.74 31.01 43.96C30.6 44.17 30.16 44.28 29.63 44.28C29.17 44.28 28.78 44.16 28.48 43.92C28.18 43.72 27.92 43.43 27.71 43.12C27.63 42.98 27.24 42.29 26.54 41.03C28.57 39.51 30.16 38.55 31.31 38.13C33.05 37.47 34.94 37.16 36.96 37.16C38.42 37.16 39.71 37.4 40.87 37.87C42.01 38.35 42.99 39 43.79 39.85ZM53.14 70C53.45 69.35 55 66.04 57.76 60.13C51.87 46.63 48.59 39.14 47.95 37.64C51.39 37.64 53.31 37.64 53.69 37.64C54.22 37.64 54.61 37.76 54.89 37.99C55.17 38.23 55.38 38.5 55.51 38.83C55.98 39.99 59.7 49.35 60.17 50.52C60.33 50.97 60.49 51.44 60.63 51.9C60.76 52.37 60.9 52.84 61.02 53.29C61.3 52.36 61.64 51.43 62 50.49C62.42 49.33 65.88 39.99 66.3 38.83C66.44 38.48 66.66 38.18 66.99 37.96C67.33 37.75 67.69 37.64 68.08 37.64C68.43 37.64 70.18 37.64 73.33 37.64C65.43 56.27 61.02 66.6 60.14 68.67C59.93 69.11 59.69 69.44 59.38 69.67C59.1 69.88 58.64 70 58 70C57.68 70 56.06 70 53.14 70ZM98.36 49.83C98.36 51.79 98.06 53.53 97.48 55.08C96.88 56.65 96.06 57.96 94.98 59.07C93.91 60.15 92.62 60.99 91.12 61.58C89.62 62.16 87.96 62.45 86.11 62.45C84.26 62.45 82.59 62.16 81.08 61.58C79.57 60.99 78.26 60.15 77.19 59.07C76.11 57.96 75.29 56.65 74.69 55.08C74.1 53.53 73.8 51.79 73.8 49.83C73.8 47.88 74.1 46.14 74.69 44.58C75.29 43.04 76.11 41.71 77.19 40.63C78.26 39.56 79.57 38.72 81.08 38.14C82.59 37.55 84.26 37.25 86.11 37.25C87.96 37.25 89.62 37.55 91.12 38.14C92.62 38.72 93.91 39.56 94.98 40.63C96.06 41.71 96.88 43.04 97.48 44.58C98.06 46.14 98.36 47.88 98.36 49.83ZM86.11 42.19C84.2 42.19 82.79 42.83 81.9 44.12C80.99 45.41 80.54 47.32 80.54 49.85C80.54 52.41 80.99 54.31 81.9 55.6C82.79 56.89 84.2 57.54 86.11 57.54C87.98 57.54 89.37 56.89 90.27 55.6C91.18 54.31 91.62 52.41 91.62 49.85C91.62 47.32 91.18 45.41 90.27 44.12C89.37 42.83 87.98 42.19 86.11 42.19ZM111.81 45.97C112.35 45.24 116.68 39.47 117.22 38.76C117.48 38.38 117.79 38.11 118.13 37.92C118.46 37.73 118.9 37.64 119.42 37.64C119.82 37.64 121.81 37.64 125.41 37.64C121.19 42.99 118.84 45.97 118.38 46.56C117.82 47.3 117.18 47.88 116.45 48.31C116.82 48.58 117.13 48.85 117.4 49.19C117.67 49.53 117.93 49.89 118.18 50.31C118.7 51.09 121.22 55.02 125.76 62.1C122.23 62.1 120.26 62.1 119.88 62.1C119.37 62.1 118.93 62.01 118.57 61.84C118.21 61.68 117.89 61.39 117.67 60.96C117.12 60.06 112.72 52.86 112.16 51.96C111.94 51.58 111.71 51.33 111.48 51.23C111.23 51.12 110.87 51.08 110.4 51.08C110.32 51.08 109.85 51.08 109.03 51.08C109.03 51.8 109.03 55.47 109.03 62.1C105.11 62.1 102.92 62.1 102.48 62.1C102.48 39.26 102.48 26.57 102.48 24.02C102.73 24.27 102.99 24.48 103.29 24.64C104.27 25.25 105.43 25.44 106.55 25.18C107.56 24.94 108.42 24.38 109.03 23.57C109.03 26.66 109.03 34.4 109.03 46.81C109.69 46.81 110.04 46.81 110.12 46.81C110.53 46.81 110.86 46.72 111.1 46.61C111.35 46.49 111.57 46.28 111.81 45.97ZM175.27 49.83C175.27 51.79 174.97 53.53 174.39 55.08C173.8 56.65 172.97 57.96 171.89 59.07C170.81 60.15 169.54 60.99 168.02 61.58C166.52 62.16 164.86 62.45 163.03 62.45C161.18 62.45 159.51 62.16 157.99 61.58C156.47 60.99 155.18 60.15 154.11 59.07C153.03 57.96 152.19 56.65 151.61 55.08C151.01 53.53 150.72 51.79 150.72 49.83C150.72 47.88 151.01 46.14 151.61 44.58C152.19 43.04 153.03 41.71 154.11 40.63C155.18 39.56 156.47 38.72 157.99 38.14C159.51 37.55 161.18 37.25 163.03 37.25C164.86 37.25 166.52 37.55 168.02 38.14C169.54 38.72 170.81 39.56 171.89 40.63C172.97 41.71 173.8 43.04 174.39 44.58C174.97 46.14 175.27 47.88 175.27 49.83ZM163.03 42.19C161.12 42.19 159.71 42.83 158.81 44.12C157.9 45.41 157.45 47.32 157.45 49.85C157.45 52.41 157.9 54.31 158.81 55.6C159.71 56.89 161.12 57.54 163.03 57.54C164.89 57.54 166.27 56.89 167.18 55.6C168.08 54.31 168.54 52.41 168.54 49.85C168.54 47.32 168.08 45.41 167.18 44.12C166.27 42.83 164.89 42.19 163.03 42.19ZM146.39 37.64L146.39 62.1L139.85 62.1L139.85 37.64L146.39 37.64ZM143.05 34.65C142.52 34.65 142.01 34.56 141.53 34.35C141.04 34.12 140.62 33.86 140.25 33.49C139.88 33.13 139.59 32.69 139.39 32.22C139.17 31.76 139.07 31.24 139.07 30.68C139.07 30.13 139.17 29.6 139.39 29.13C139.59 28.65 139.88 28.23 140.25 27.85C140.62 27.49 141.04 27.22 141.53 27.01C142.01 26.8 142.52 26.69 143.05 26.69C143.62 26.69 144.15 26.8 144.67 27.01C145.16 27.22 145.59 27.49 145.96 27.85C146.34 28.23 146.62 28.65 146.85 29.13C147.07 29.6 147.18 30.13 147.18 30.68C147.18 31.24 147.07 31.76 146.85 32.22C146.62 32.69 146.34 33.13 145.96 33.49C145.59 33.86 145.16 34.12 144.67 34.35C144.15 34.56 143.62 34.65 143.05 34.65Z" id="b3gvKvXDI9"/><path d="M14.7 55.71C15.17 55.05 15.52 54.25 15.77 53.25C16.03 52.26 16.16 51.08 16.16 49.69C16.16 48.33 16.05 47.17 15.84 46.22C15.62 45.27 15.33 44.51 14.95 43.92C14.55 43.34 14.07 42.9 13.52 42.65C12.97 42.4 12.36 42.27 11.68 42.27C10.51 42.27 9.56 42.48 8.77 42.95C7.99 43.39 7.25 44.05 6.56 44.92C6.56 45.63 6.56 49.2 6.56 55.65C7.41 56.44 8.07 56.94 8.55 57.13C9.28 57.42 10.05 57.56 10.86 57.56C11.66 57.56 12.38 57.41 13.02 57.12C13.67 56.82 14.23 56.34 14.7 55.71ZM13.93 37.16C15.24 37.16 16.45 37.44 17.55 38C18.64 38.56 19.59 39.37 20.37 40.44C21.18 41.51 21.78 42.82 22.23 44.38C22.68 45.92 22.89 47.69 22.89 49.69C22.89 51.53 22.66 53.21 22.14 54.76C21.65 56.33 20.94 57.69 20.02 58.82C19.11 59.97 18 60.85 16.72 61.48C15.42 62.12 13.99 62.45 12.4 62.45C11.08 62.45 9.95 62.25 9.03 61.86C8.11 61.46 7.28 60.92 6.56 60.25C6.56 60.9 6.56 64.14 6.56 70C6.11 70 3.93 70 0 70C0 50.59 0 39.79 0 37.64C2.43 37.64 3.77 37.64 4.04 37.64C4.85 37.64 5.4 38.01 5.67 38.78C5.71 38.91 5.87 39.6 6.17 40.84C6.85 40.16 7.36 39.65 7.74 39.34C8.3 38.9 8.88 38.51 9.51 38.18C10.14 37.87 10.83 37.61 11.56 37.43C12.29 37.24 13.07 37.16 13.93 37.16ZM31.64 55.45C31.64 56.41 31.92 57.07 32.45 57.47C32.97 57.87 33.71 58.08 34.66 58.08C35.76 58.08 36.7 57.87 37.5 57.48C38.29 57.1 39.1 56.49 39.89 55.67C39.89 55.42 39.89 54.14 39.89 51.87C37.92 52.01 36.6 52.15 35.89 52.28C34.83 52.49 34 52.73 33.37 53.06C32.74 53.36 32.31 53.72 32.04 54.13C31.78 54.54 31.64 54.99 31.64 55.45ZM43.79 39.85C44.58 40.69 45.2 41.71 45.62 42.87C46.05 44.05 46.26 45.33 46.26 46.71C46.26 47.75 46.26 52.87 46.26 62.1C44.46 62.1 43.47 62.1 43.26 62.1C42.65 62.1 42.18 62.01 41.86 61.83C41.55 61.66 41.28 61.3 41.07 60.74C41.01 60.58 40.6 59.34 40.54 59.17C39.92 59.71 39.33 60.2 38.76 60.6C38.17 61.02 37.57 61.36 36.96 61.63C36.35 61.9 35.69 62.11 34.99 62.26C34.28 62.4 33.5 62.46 32.62 62.46C31.55 62.46 30.56 62.33 29.68 62.04C28.78 61.75 28.04 61.33 27.39 60.77C26.75 60.21 26.26 59.51 25.91 58.67C25.56 57.84 25.38 56.87 25.38 55.79C25.38 54.88 25.61 53.98 26.06 53.08C26.53 52.17 27.32 51.36 28.43 50.61C29.55 49.89 31.03 49.29 32.9 48.79C34.76 48.31 37.08 48.04 39.89 47.99C39.89 47.87 39.89 46.85 39.89 46.71C39.89 45.18 39.56 44.07 38.91 43.34C38.27 42.63 37.31 42.27 36.11 42.27C35.2 42.27 34.45 42.37 33.86 42.57C33.26 42.79 32.73 43.01 32.28 43.26C31.84 43.51 31.41 43.74 31.01 43.96C30.6 44.17 30.16 44.28 29.63 44.28C29.17 44.28 28.78 44.16 28.48 43.92C28.18 43.72 27.92 43.43 27.71 43.12C27.63 42.98 27.24 42.29 26.54 41.03C28.57 39.51 30.16 38.55 31.31 38.13C33.05 37.47 34.94 37.16 36.96 37.16C38.42 37.16 39.71 37.4 40.87 37.87C42.01 38.35 42.99 39 43.79 39.85ZM53.14 70C53.45 69.35 55 66.04 57.76 60.13C51.87 46.63 48.59 39.14 47.95 37.64C51.39 37.64 53.31 37.64 53.69 37.64C54.22 37.64 54.61 37.76 54.89 37.99C55.17 38.23 55.38 38.5 55.51 38.83C55.98 39.99 59.7 49.35 60.17 50.52C60.33 50.97 60.49 51.44 60.63 51.9C60.76 52.37 60.9 52.84 61.02 53.29C61.3 52.36 61.64 51.43 62 50.49C62.42 49.33 65.88 39.99 66.3 38.83C66.44 38.48 66.66 38.18 66.99 37.96C67.33 37.75 67.69 37.64 68.08 37.64C68.43 37.64 70.18 37.64 73.33 37.64C65.43 56.27 61.02 66.6 60.14 68.67C59.93 69.11 59.69 69.44 59.38 69.67C59.1 69.88 58.64 70 58 70C57.68 70 56.06 70 53.14 70ZM98.36 49.83C98.36 51.79 98.06 53.53 97.48 55.08C96.88 56.65 96.06 57.96 94.98 59.07C93.91 60.15 92.62 60.99 91.12 61.58C89.62 62.16 87.96 62.45 86.11 62.45C84.26 62.45 82.59 62.16 81.08 61.58C79.57 60.99 78.26 60.15 77.19 59.07C76.11 57.96 75.29 56.65 74.69 55.08C74.1 53.53 73.8 51.79 73.8 49.83C73.8 47.88 74.1 46.14 74.69 44.58C75.29 43.04 76.11 41.71 77.19 40.63C78.26 39.56 79.57 38.72 81.08 38.14C82.59 37.55 84.26 37.25 86.11 37.25C87.96 37.25 89.62 37.55 91.12 38.14C92.62 38.72 93.91 39.56 94.98 40.63C96.06 41.71 96.88 43.04 97.48 44.58C98.06 46.14 98.36 47.88 98.36 49.83ZM86.11 42.19C84.2 42.19 82.79 42.83 81.9 44.12C80.99 45.41 80.54 47.32 80.54 49.85C80.54 52.41 80.99 54.31 81.9 55.6C82.79 56.89 84.2 57.54 86.11 57.54C87.98 57.54 89.37 56.89 90.27 55.6C91.18 54.31 91.62 52.41 91.62 49.85C91.62 47.32 91.18 45.41 90.27 44.12C89.37 42.83 87.98 42.19 86.11 42.19ZM111.81 45.97C112.35 45.24 116.68 39.47 117.22 38.76C117.48 38.38 117.79 38.11 118.13 37.92C118.46 37.73 118.9 37.64 119.42 37.64C119.82 37.64 121.81 37.64 125.41 37.64C121.19 42.99 118.84 45.97 118.38 46.56C117.82 47.3 117.18 47.88 116.45 48.31C116.82 48.58 117.13 48.85 117.4 49.19C117.67 49.53 117.93 49.89 118.18 50.31C118.7 51.09 121.22 55.02 125.76 62.1C122.23 62.1 120.26 62.1 119.88 62.1C119.37 62.1 118.93 62.01 118.57 61.84C118.21 61.68 117.89 61.39 117.67 60.96C117.12 60.06 112.72 52.86 112.16 51.96C111.94 51.58 111.71 51.33 111.48 51.23C111.23 51.12 110.87 51.08 110.4 51.08C110.32 51.08 109.85 51.08 109.03 51.08C109.03 51.8 109.03 55.47 109.03 62.1C105.11 62.1 102.92 62.1 102.48 62.1C102.48 39.26 102.48 26.57 102.48 24.02C102.73 24.27 102.99 24.48 103.29 24.64C104.27 25.25 105.43 25.44 106.55 25.18C107.56 24.94 108.42 24.38 109.03 23.57C109.03 26.66 109.03 34.4 109.03 46.81C109.69 46.81 110.04 46.81 110.12 46.81C110.53 46.81 110.86 46.72 111.1 46.61C111.35 46.49 111.57 46.28 111.81 45.97ZM175.27 49.83C175.27 51.79 174.97 53.53 174.39 55.08C173.8 56.65 172.97 57.96 171.89 59.07C170.81 60.15 169.54 60.99 168.02 61.58C166.52 62.16 164.86 62.45 163.03 62.45C161.18 62.45 159.51 62.16 157.99 61.58C156.47 60.99 155.18 60.15 154.11 59.07C153.03 57.96 152.19 56.65 151.61 55.08C151.01 53.53 150.72 51.79 150.72 49.83C150.72 47.88 151.01 46.14 151.61 44.58C152.19 43.04 153.03 41.71 154.11 40.63C155.18 39.56 156.47 38.72 157.99 38.14C159.51 37.55 161.18 37.25 163.03 37.25C164.86 37.25 166.52 37.55 168.02 38.14C169.54 38.72 170.81 39.56 171.89 40.63C172.97 41.71 173.8 43.04 174.39 44.58C174.97 46.14 175.27 47.88 175.27 49.83ZM163.03 42.19C161.12 42.19 159.71 42.83 158.81 44.12C157.9 45.41 157.45 47.32 157.45 49.85C157.45 52.41 157.9 54.31 158.81 55.6C159.71 56.89 161.12 57.54 163.03 57.54C164.89 57.54 166.27 56.89 167.18 55.6C168.08 54.31 168.54 52.41 168.54 49.85C168.54 47.32 168.08 45.41 167.18 44.12C166.27 42.83 164.89 42.19 163.03 42.19ZM146.39 37.64L146.39 62.1L139.85 62.1L139.85 37.64L146.39 37.64ZM143.05 34.65C142.52 34.65 142.01 34.56 141.53 34.35C141.04 34.12 140.62 33.86 140.25 33.49C139.88 33.13 139.59 32.69 139.39 32.22C139.17 31.76 139.07 31.24 139.07 30.68C139.07 30.13 139.17 29.6 139.39 29.13C139.59 28.65 139.88 28.23 140.25 27.85C140.62 27.49 141.04 27.22 141.53 27.01C142.01 26.8 142.52 26.69 143.05 26.69C143.62 26.69 144.15 26.8 144.67 27.01C145.16 27.22 145.59 27.49 145.96 27.85C146.34 28.23 146.62 28.65 146.85 29.13C147.07 29.6 147.18 30.13 147.18 30.68C147.18 31.24 147.07 31.76 146.85 32.22C146.62 32.69 146.34 33.13 145.96 33.49C145.59 33.86 145.16 34.12 144.67 34.35C144.15 34.56 143.62 34.65 143.05 34.65Z" id="a9Avr1Wng"/><path d="M14.7 55.71C15.17 55.05 15.52 54.25 15.77 53.25C16.03 52.26 16.16 51.08 16.16 49.69C16.16 48.33 16.05 47.17 15.84 46.22C15.62 45.27 15.33 44.51 14.95 43.92C14.55 43.34 14.07 42.9 13.52 42.65C12.97 42.4 12.36 42.27 11.68 42.27C10.51 42.27 9.56 42.48 8.77 42.95C7.99 43.39 7.25 44.05 6.56 44.92C6.56 45.63 6.56 49.2 6.56 55.65C7.41 56.44 8.07 56.94 8.55 57.13C9.28 57.42 10.05 57.56 10.86 57.56C11.66 57.56 12.38 57.41 13.02 57.12C13.67 56.82 14.23 56.34 14.7 55.71ZM13.93 37.16C15.24 37.16 16.45 37.44 17.55 38C18.64 38.56 19.59 39.37 20.37 40.44C21.18 41.51 21.78 42.82 22.23 44.38C22.68 45.92 22.89 47.69 22.89 49.69C22.89 51.53 22.66 53.21 22.14 54.76C21.65 56.33 20.94 57.69 20.02 58.82C19.11 59.97 18 60.85 16.72 61.48C15.42 62.12 13.99 62.45 12.4 62.45C11.08 62.45 9.95 62.25 9.03 61.86C8.11 61.46 7.28 60.92 6.56 60.25C6.56 60.9 6.56 64.14 6.56 70C6.11 70 3.93 70 0 70C0 50.59 0 39.79 0 37.64C2.43 37.64 3.77 37.64 4.04 37.64C4.85 37.64 5.4 38.01 5.67 38.78C5.71 38.91 5.87 39.6 6.17 40.84C6.85 40.16 7.36 39.65 7.74 39.34C8.3 38.9 8.88 38.51 9.51 38.18C10.14 37.87 10.83 37.61 11.56 37.43C12.29 37.24 13.07 37.16 13.93 37.16ZM31.64 55.45C31.64 56.41 31.92 57.07 32.45 57.47C32.97 57.87 33.71 58.08 34.66 58.08C35.76 58.08 36.7 57.87 37.5 57.48C38.29 57.1 39.1 56.49 39.89 55.67C39.89 55.42 39.89 54.14 39.89 51.87C37.92 52.01 36.6 52.15 35.89 52.28C34.83 52.49 34 52.73 33.37 53.06C32.74 53.36 32.31 53.72 32.04 54.13C31.78 54.54 31.64 54.99 31.64 55.45ZM43.79 39.85C44.58 40.69 45.2 41.71 45.62 42.87C46.05 44.05 46.26 45.33 46.26 46.71C46.26 47.75 46.26 52.87 46.26 62.1C44.46 62.1 43.47 62.1 43.26 62.1C42.65 62.1 42.18 62.01 41.86 61.83C41.55 61.66 41.28 61.3 41.07 60.74C41.01 60.58 40.6 59.34 40.54 59.17C39.92 59.71 39.33 60.2 38.76 60.6C38.17 61.02 37.57 61.36 36.96 61.63C36.35 61.9 35.69 62.11 34.99 62.26C34.28 62.4 33.5 62.46 32.62 62.46C31.55 62.46 30.56 62.33 29.68 62.04C28.78 61.75 28.04 61.33 27.39 60.77C26.75 60.21 26.26 59.51 25.91 58.67C25.56 57.84 25.38 56.87 25.38 55.79C25.38 54.88 25.61 53.98 26.06 53.08C26.53 52.17 27.32 51.36 28.43 50.61C29.55 49.89 31.03 49.29 32.9 48.79C34.76 48.31 37.08 48.04 39.89 47.99C39.89 47.87 39.89 46.85 39.89 46.71C39.89 45.18 39.56 44.07 38.91 43.34C38.27 42.63 37.31 42.27 36.11 42.27C35.2 42.27 34.45 42.37 33.86 42.57C33.26 42.79 32.73 43.01 32.28 43.26C31.84 43.51 31.41 43.74 31.01 43.96C30.6 44.17 30.16 44.28 29.63 44.28C29.17 44.28 28.78 44.16 28.48 43.92C28.18 43.72 27.92 43.43 27.71 43.12C27.63 42.98 27.24 42.29 26.54 41.03C28.57 39.51 30.16 38.55 31.31 38.13C33.05 37.47 34.94 37.16 36.96 37.16C38.42 37.16 39.71 37.4 40.87 37.87C42.01 38.35 42.99 39 43.79 39.85ZM53.14 70C53.45 69.35 55 66.04 57.76 60.13C51.87 46.63 48.59 39.14 47.95 37.64C51.39 37.64 53.31 37.64 53.69 37.64C54.22 37.64 54.61 37.76 54.89 37.99C55.17 38.23 55.38 38.5 55.51 38.83C55.98 39.99 59.7 49.35 60.17 50.52C60.33 50.97 60.49 51.44 60.63 51.9C60.76 52.37 60.9 52.84 61.02 53.29C61.3 52.36 61.64 51.43 62 50.49C62.42 49.33 65.88 39.99 66.3 38.83C66.44 38.48 66.66 38.18 66.99 37.96C67.33 37.75 67.69 37.64 68.08 37.64C68.43 37.64 70.18 37.64 73.33 37.64C65.43 56.27 61.02 66.6 60.14 68.67C59.93 69.11 59.69 69.44 59.38 69.67C59.1 69.88 58.64 70 58 70C57.68 70 56.06 70 53.14 70ZM98.36 49.83C98.36 51.79 98.06 53.53 97.48 55.08C96.88 56.65 96.06 57.96 94.98 59.07C93.91 60.15 92.62 60.99 91.12 61.58C89.62 62.16 87.96 62.45 86.11 62.45C84.26 62.45 82.59 62.16 81.08 61.58C79.57 60.99 78.26 60.15 77.19 59.07C76.11 57.96 75.29 56.65 74.69 55.08C74.1 53.53 73.8 51.79 73.8 49.83C73.8 47.88 74.1 46.14 74.69 44.58C75.29 43.04 76.11 41.71 77.19 40.63C78.26 39.56 79.57 38.72 81.08 38.14C82.59 37.55 84.26 37.25 86.11 37.25C87.96 37.25 89.62 37.55 91.12 38.14C92.62 38.72 93.91 39.56 94.98 40.63C96.06 41.71 96.88 43.04 97.48 44.58C98.06 46.14 98.36 47.88 98.36 49.83ZM86.11 42.19C84.2 42.19 82.79 42.83 81.9 44.12C80.99 45.41 80.54 47.32 80.54 49.85C80.54 52.41 80.99 54.31 81.9 55.6C82.79 56.89 84.2 57.54 86.11 57.54C87.98 57.54 89.37 56.89 90.27 55.6C91.18 54.31 91.62 52.41 91.62 49.85C91.62 47.32 91.18 45.41 90.27 44.12C89.37 42.83 87.98 42.19 86.11 42.19ZM111.81 45.97C112.35 45.24 116.68 39.47 117.22 38.76C117.48 38.38 117.79 38.11 118.13 37.92C118.46 37.73 118.9 37.64 119.42 37.64C119.82 37.64 121.81 37.64 125.41 37.64C121.19 42.99 118.84 45.97 118.38 46.56C117.82 47.3 117.18 47.88 116.45 48.31C116.82 48.58 117.13 48.85 117.4 49.19C117.67 49.53 117.93 49.89 118.18 50.31C118.7 51.09 121.22 55.02 125.76 62.1C122.23 62.1 120.26 62.1 119.88 62.1C119.37 62.1 118.93 62.01 118.57 61.84C118.21 61.68 117.89 61.39 117.67 60.96C117.12 60.06 112.72 52.86 112.16 51.96C111.94 51.58 111.71 51.33 111.48 51.23C111.23 51.12 110.87 51.08 110.4 51.08C110.32 51.08 109.85 51.08 109.03 51.08C109.03 51.8 109.03 55.47 109.03 62.1C105.11 62.1 102.92 62.1 102.48 62.1C102.48 39.26 102.48 26.57 102.48 24.02C102.73 24.27 102.99 24.48 103.29 24.64C104.27 25.25 105.43 25.44 106.55 25.18C107.56 24.94 108.42 24.38 109.03 23.57C109.03 26.66 109.03 34.4 109.03 46.81C109.69 46.81 110.04 46.81 110.12 46.81C110.53 46.81 110.86 46.72 111.1 46.61C111.35 46.49 111.57 46.28 111.81 45.97ZM175.27 49.83C175.27 51.79 174.97 53.53 174.39 55.08C173.8 56.65 172.97 57.96 171.89 59.07C170.81 60.15 169.54 60.99 168.02 61.58C166.52 62.16 164.86 62.45 163.03 62.45C161.18 62.45 159.51 62.16 157.99 61.58C156.47 60.99 155.18 60.15 154.11 59.07C153.03 57.96 152.19 56.65 151.61 55.08C151.01 53.53 150.72 51.79 150.72 49.83C150.72 47.88 151.01 46.14 151.61 44.58C152.19 43.04 153.03 41.71 154.11 40.63C155.18 39.56 156.47 38.72 157.99 38.14C159.51 37.55 161.18 37.25 163.03 37.25C164.86 37.25 166.52 37.55 168.02 38.14C169.54 38.72 170.81 39.56 171.89 40.63C172.97 41.71 173.8 43.04 174.39 44.58C174.97 46.14 175.27 47.88 175.27 49.83ZM163.03 42.19C161.12 42.19 159.71 42.83 158.81 44.12C157.9 45.41 157.45 47.32 157.45 49.85C157.45 52.41 157.9 54.31 158.81 55.6C159.71 56.89 161.12 57.54 163.03 57.54C164.89 57.54 166.27 56.89 167.18 55.6C168.08 54.31 168.54 52.41 168.54 49.85C168.54 47.32 168.08 45.41 167.18 44.12C166.27 42.83 164.89 42.19 163.03 42.19ZM146.39 37.64L146.39 62.1L139.85 62.1L139.85 37.64L146.39 37.64ZM143.05 34.65C142.52 34.65 142.01 34.56 141.53 34.35C141.04 34.12 140.62 33.86 140.25 33.49C139.88 33.13 139.59 32.69 139.39 32.22C139.17 31.76 139.07 31.24 139.07 30.68C139.07 30.13 139.17 29.6 139.39 29.13C139.59 28.65 139.88 28.23 140.25 27.85C140.62 27.49 141.04 27.22 141.53 27.01C142.01 26.8 142.52 26.69 143.05 26.69C143.62 26.69 144.15 26.8 144.67 27.01C145.16 27.22 145.59 27.49 145.96 27.85C146.34 28.23 146.62 28.65 146.85 29.13C147.07 29.6 147.18 30.13 147.18 30.68C147.18 31.24 147.07 31.76 146.85 32.22C146.62 32.69 146.34 33.13 145.96 33.49C145.59 33.86 145.16 34.12 144.67 34.35C144.15 34.56 143.62 34.65 143.05 34.65Z" id="a7D8uYLUp"/><path d="M131.31 54.87C131.85 54.87 132.35 54.96 132.83 55.15C133.29 55.35 133.7 55.63 134.05 55.96C134.4 56.3 134.68 56.7 134.88 57.17C135.08 57.63 135.18 58.13 135.18 58.66C135.18 59.2 135.08 59.69 134.88 60.15C134.68 60.61 134.4 61 134.05 61.34C133.7 61.68 133.29 61.96 132.83 62.14C132.35 62.33 131.85 62.43 131.31 62.43C130.75 62.43 130.25 62.33 129.78 62.14C129.31 61.96 128.91 61.68 128.56 61.34C128.21 61 127.94 60.61 127.73 60.15C127.54 59.69 127.45 59.2 127.45 58.66C127.45 58.13 127.54 57.63 127.73 57.17C127.94 56.7 128.21 56.3 128.56 55.96C128.91 55.63 129.31 55.35 129.78 55.15C130.25 54.96 130.75 54.87 131.31 54.87Z" id="c6fuoJrH6i"/><path d="M131.31 54.87C131.85 54.87 132.35 54.96 132.83 55.15C133.29 55.35 133.7 55.63 134.05 55.96C134.4 56.3 134.68 56.7 134.88 57.17C135.08 57.63 135.18 58.13 135.18 58.66C135.18 59.2 135.08 59.69 134.88 60.15C134.68 60.61 134.4 61 134.05 61.34C133.7 61.68 133.29 61.96 132.83 62.14C132.35 62.33 131.85 62.43 131.31 62.43C130.75 62.43 130.25 62.33 129.78 62.14C129.31 61.96 128.91 61.68 128.56 61.34C128.21 61 127.94 60.61 127.73 60.15C127.54 59.69 127.45 59.2 127.45 58.66C127.45 58.13 127.54 57.63 127.73 57.17C127.94 56.7 128.21 56.3 128.56 55.96C128.91 55.63 129.31 55.35 129.78 55.15C130.25 54.96 130.75 54.87 131.31 54.87Z" id="d5pBJgvQF"/><path d="M131.31 54.87C131.85 54.87 132.35 54.96 132.83 55.15C133.29 55.35 133.7 55.63 134.05 55.96C134.4 56.3 134.68 56.7 134.88 57.17C135.08 57.63 135.18 58.13 135.18 58.66C135.18 59.2 135.08 59.69 134.88 60.15C134.68 60.61 134.4 61 134.05 61.34C133.7 61.68 133.29 61.96 132.83 62.14C132.35 62.33 131.85 62.43 131.31 62.43C130.75 62.43 130.25 62.33 129.78 62.14C129.31 61.96 128.91 61.68 128.56 61.34C128.21 61 127.94 60.61 127.73 60.15C127.54 59.69 127.45 59.2 127.45 58.66C127.45 58.13 127.54 57.63 127.73 57.17C127.94 56.7 128.21 56.3 128.56 55.96C128.91 55.63 129.31 55.35 129.78 55.15C130.25 54.96 130.75 54.87 131.31 54.87Z" id="b1QOuv86M"/><path d="M131.31 54.87C131.85 54.87 132.35 54.96 132.83 55.15C133.29 55.35 133.7 55.63 134.05 55.96C134.4 56.3 134.68 56.7 134.88 57.17C135.08 57.63 135.18 58.13 135.18 58.66C135.18 59.2 135.08 59.69 134.88 60.15C134.68 60.61 134.4 61 134.05 61.34C133.7 61.68 133.29 61.96 132.83 62.14C132.35 62.33 131.85 62.43 131.31 62.43C130.75 62.43 130.25 62.33 129.78 62.14C129.31 61.96 128.91 61.68 128.56 61.34C128.21 61 127.94 60.61 127.73 60.15C127.54 59.69 127.45 59.2 127.45 58.66C127.45 58.13 127.54 57.63 127.73 57.17C127.94 56.7 128.21 56.3 128.56 55.96C128.91 55.63 129.31 55.35 129.78 55.15C130.25 54.96 130.75 54.87 131.31 54.87Z" id="eJOR7nOdo"/><path d="M131.31 54.87C131.85 54.87 132.35 54.96 132.83 55.15C133.29 55.35 133.7 55.63 134.05 55.96C134.4 56.3 134.68 56.7 134.88 57.17C135.08 57.63 135.18 58.13 135.18 58.66C135.18 59.2 135.08 59.69 134.88 60.15C134.68 60.61 134.4 61 134.05 61.34C133.7 61.68 133.29 61.96 132.83 62.14C132.35 62.33 131.85 62.43 131.31 62.43C130.75 62.43 130.25 62.33 129.78 62.14C129.31 61.96 128.91 61.68 128.56 61.34C128.21 61 127.94 60.61 127.73 60.15C127.54 59.69 127.45 59.2 127.45 58.66C127.45 58.13 127.54 57.63 127.73 57.17C127.94 56.7 128.21 56.3 128.56 55.96C128.91 55.63 129.31 55.35 129.78 55.15C130.25 54.96 130.75 54.87 131.31 54.87Z" id="awr1COCXq"/><path d="M131.31 54.87C131.85 54.87 132.35 54.96 132.83 55.15C133.29 55.35 133.7 55.63 134.05 55.96C134.4 56.3 134.68 56.7 134.88 57.17C135.08 57.63 135.18 58.13 135.18 58.66C135.18 59.2 135.08 59.69 134.88 60.15C134.68 60.61 134.4 61 134.05 61.34C133.7 61.68 133.29 61.96 132.83 62.14C132.35 62.33 131.85 62.43 131.31 62.43C130.75 62.43 130.25 62.33 129.78 62.14C129.31 61.96 128.91 61.68 128.56 61.34C128.21 61 127.94 60.61 127.73 60.15C127.54 59.69 127.45 59.2 127.45 58.66C127.45 58.13 127.54 57.63 127.73 57.17C127.94 56.7 128.21 56.3 128.56 55.96C128.91 55.63 129.31 55.35 129.78 55.15C130.25 54.96 130.75 54.87 131.31 54.87Z" id="cVk8sa7d"/><path d="M131.31 54.87C131.85 54.87 132.35 54.96 132.83 55.15C133.29 55.35 133.7 55.63 134.05 55.96C134.4 56.3 134.68 56.7 134.88 57.17C135.08 57.63 135.18 58.13 135.18 58.66C135.18 59.2 135.08 59.69 134.88 60.15C134.68 60.61 134.4 61 134.05 61.34C133.7 61.68 133.29 61.96 132.83 62.14C132.35 62.33 131.85 62.43 131.31 62.43C130.75 62.43 130.25 62.33 129.78 62.14C129.31 61.96 128.91 61.68 128.56 61.34C128.21 61 127.94 60.61 127.73 60.15C127.54 59.69 127.45 59.2 127.45 58.66C127.45 58.13 127.54 57.63 127.73 57.17C127.94 56.7 128.21 56.3 128.56 55.96C128.91 55.63 129.31 55.35 129.78 55.15C130.25 54.96 130.75 54.87 131.31 54.87Z" id="aefHz4dSs"/><path d="M131.31 54.87C131.85 54.87 132.35 54.96 132.83 55.15C133.29 55.35 133.7 55.63 134.05 55.96C134.4 56.3 134.68 56.7 134.88 57.17C135.08 57.63 135.18 58.13 135.18 58.66C135.18 59.2 135.08 59.69 134.88 60.15C134.68 60.61 134.4 61 134.05 61.34C133.7 61.68 133.29 61.96 132.83 62.14C132.35 62.33 131.85 62.43 131.31 62.43C130.75 62.43 130.25 62.33 129.78 62.14C129.31 61.96 128.91 61.68 128.56 61.34C128.21 61 127.94 60.61 127.73 60.15C127.54 59.69 127.45 59.2 127.45 58.66C127.45 58.13 127.54 57.63 127.73 57.17C127.94 56.7 128.21 56.3 128.56 55.96C128.91 55.63 129.31 55.35 129.78 55.15C130.25 54.96 130.75 54.87 131.31 54.87Z" id="o258n1nBCK"/><path d="M86.57 12.47C84.63 12.99 82.65 11.82 82.13 9.88C81.62 7.94 82.78 5.96 84.72 5.45C86.02 5.11 92.59 3.38 104.39 0.29C104.86 2.26 108.62 18.1 109.1 20.08C108.59 22.69 107.68 24.14 106.39 24.45C104.44 24.91 102.47 23.69 102.03 21.75C101.82 20.92 100.84 16.73 99.05 9.19C91.55 11.17 87.4 12.25 86.57 12.47Z" id="b7xgagv04"/><path d="M86.57 12.47C84.63 12.99 82.65 11.82 82.13 9.88C81.62 7.94 82.78 5.96 84.72 5.45C86.02 5.11 92.59 3.38 104.39 0.29C104.86 2.26 108.62 18.1 109.1 20.08C108.59 22.69 107.68 24.14 106.39 24.45C104.44 24.91 102.47 23.69 102.03 21.75C101.82 20.92 100.84 16.73 99.05 9.19C91.55 11.17 87.4 12.25 86.57 12.47Z" id="boJh2g2j3"/><path d="M86.57 12.47C84.63 12.99 82.65 11.82 82.13 9.88C81.62 7.94 82.78 5.96 84.72 5.45C86.02 5.11 92.59 3.38 104.39 0.29C104.86 2.26 108.62 18.1 109.1 20.08C108.59 22.69 107.68 24.14 106.39 24.45C104.44 24.91 102.47 23.69 102.03 21.75C101.82 20.92 100.84 16.73 99.05 9.19C91.55 11.17 87.4 12.25 86.57 12.47Z" id="gN5EmQbfv"/><path d="M86.57 12.47C84.63 12.99 82.65 11.82 82.13 9.88C81.62 7.94 82.78 5.96 84.72 5.45C86.02 5.11 92.59 3.38 104.39 0.29C104.86 2.26 108.62 18.1 109.1 20.08C108.59 22.69 107.68 24.14 106.39 24.45C104.44 24.91 102.47 23.69 102.03 21.75C101.82 20.92 100.84 16.73 99.05 9.19C91.55 11.17 87.4 12.25 86.57 12.47Z" id="prGLOGy8"/><path d="M86.57 12.47C84.63 12.99 82.65 11.82 82.13 9.88C81.62 7.94 82.78 5.96 84.72 5.45C86.02 5.11 92.59 3.38 104.39 0.29C104.86 2.26 108.62 18.1 109.1 20.08C108.59 22.69 107.68 24.14 106.39 24.45C104.44 24.91 102.47 23.69 102.03 21.75C101.82 20.92 100.84 16.73 99.05 9.19C91.55 11.17 87.4 12.25 86.57 12.47Z" id="a5G1iBEoTA"/><path d="M86.57 12.47C84.63 12.99 82.65 11.82 82.13 9.88C81.62 7.94 82.78 5.96 84.72 5.45C86.02 5.11 92.59 3.38 104.39 0.29C104.86 2.26 108.62 18.1 109.1 20.08C108.59 22.69 107.68 24.14 106.39 24.45C104.44 24.91 102.47 23.69 102.03 21.75C101.82 20.92 100.84 16.73 99.05 9.19C91.55 11.17 87.4 12.25 86.57 12.47Z" id="e2NCwUvtzR"/><path d="M86.57 12.47C84.63 12.99 82.65 11.82 82.13 9.88C81.62 7.94 82.78 5.96 84.72 5.45C86.02 5.11 92.59 3.38 104.39 0.29C104.86 2.26 108.62 18.1 109.1 20.08C108.59 22.69 107.68 24.14 106.39 24.45C104.44 24.91 102.47 23.69 102.03 21.75C101.82 20.92 100.84 16.73 99.05 9.19C91.55 11.17 87.4 12.25 86.57 12.47Z" id="gvqxw4k4F"/><path d="M86.57 12.47C84.63 12.99 82.65 11.82 82.13 9.88C81.62 7.94 82.78 5.96 84.72 5.45C86.02 5.11 92.59 3.38 104.39 0.29C104.86 2.26 108.62 18.1 109.1 20.08C108.59 22.69 107.68 24.14 106.39 24.45C104.44 24.91 102.47 23.69 102.03 21.75C101.82 20.92 100.84 16.73 99.05 9.19C91.55 11.17 87.4 12.25 86.57 12.47Z" id="a2GmkGCw7e"/><path d="M2.03 26.6C0.43 26.04 -0.38 24.28 0.18 22.7C0.75 21.12 2.49 20.29 4.08 20.86C23.52 27.79 45.42 30.55 63.39 27.83C78.8 25.49 91.2 19.14 96.27 7.94C96.96 6.4 98.77 5.73 100.3 6.42C101.84 7.1 102.5 8.91 101.82 10.45C95.8 23.78 81.68 31.23 64.28 33.87C45.34 36.73 22.37 33.87 2.03 26.6Z" id="b2Mv1AVPHd"/><path d="M2.03 26.6C0.43 26.04 -0.38 24.28 0.18 22.7C0.75 21.12 2.49 20.29 4.08 20.86C23.52 27.79 45.42 30.55 63.39 27.83C78.8 25.49 91.2 19.14 96.27 7.94C96.96 6.4 98.77 5.73 100.3 6.42C101.84 7.1 102.5 8.91 101.82 10.45C95.8 23.78 81.68 31.23 64.28 33.87C45.34 36.73 22.37 33.87 2.03 26.6Z" id="a2GM0Zb2gD"/><path d="M2.03 26.6C0.43 26.04 -0.38 24.28 0.18 22.7C0.75 21.12 2.49 20.29 4.08 20.86C23.52 27.79 45.42 30.55 63.39 27.83C78.8 25.49 91.2 19.14 96.27 7.94C96.96 6.4 98.77 5.73 100.3 6.42C101.84 7.1 102.5 8.91 101.82 10.45C95.8 23.78 81.68 31.23 64.28 33.87C45.34 36.73 22.37 33.87 2.03 26.6Z" id="a4cqaabimJ"/><path d="M2.03 26.6C0.43 26.04 -0.38 24.28 0.18 22.7C0.75 21.12 2.49 20.29 4.08 20.86C23.52 27.79 45.42 30.55 63.39 27.83C78.8 25.49 91.2 19.14 96.27 7.94C96.96 6.4 98.77 5.73 100.3 6.42C101.84 7.1 102.5 8.91 101.82 10.45C95.8 23.78 81.68 31.23 64.28 33.87C45.34 36.73 22.37 33.87 2.03 26.6Z" id="b4hkjHHrx"/><path d="M2.03 26.6C0.43 26.04 -0.38 24.28 0.18 22.7C0.75 21.12 2.49 20.29 4.08 20.86C23.52 27.79 45.42 30.55 63.39 27.83C78.8 25.49 91.2 19.14 96.27 7.94C96.96 6.4 98.77 5.73 100.3 6.42C101.84 7.1 102.5 8.91 101.82 10.45C95.8 23.78 81.68 31.23 64.28 33.87C45.34 36.73 22.37 33.87 2.03 26.6Z" id="a4xWFQbUEJ"/><path d="M2.03 26.6C0.43 26.04 -0.38 24.28 0.18 22.7C0.75 21.12 2.49 20.29 4.08 20.86C23.52 27.79 45.42 30.55 63.39 27.83C78.8 25.49 91.2 19.14 96.27 7.94C96.96 6.4 98.77 5.73 100.3 6.42C101.84 7.1 102.5 8.91 101.82 10.45C95.8 23.78 81.68 31.23 64.28 33.87C45.34 36.73 22.37 33.87 2.03 26.6Z" id="a4480DxMms"/><path d="M2.03 26.6C0.43 26.04 -0.38 24.28 0.18 22.7C0.75 21.12 2.49 20.29 4.08 20.86C23.52 27.79 45.42 30.55 63.39 27.83C78.8 25.49 91.2 19.14 96.27 7.94C96.96 6.4 98.77 5.73 100.3 6.42C101.84 7.1 102.5 8.91 101.82 10.45C95.8 23.78 81.68 31.23 64.28 33.87C45.34 36.73 22.37 33.87 2.03 26.6Z" id="frppPxtuQ"/><path d="M2.03 26.6C0.43 26.04 -0.38 24.28 0.18 22.7C0.75 21.12 2.49 20.29 4.08 20.86C23.52 27.79 45.42 30.55 63.39 27.83C78.8 25.49 91.2 19.14 96.27 7.94C96.96 6.4 98.77 5.73 100.3 6.42C101.84 7.1 102.5 8.91 101.82 10.45C95.8 23.78 81.68 31.23 64.28 33.87C45.34 36.73 22.37 33.87 2.03 26.6Z" id="acI4NOYoX"/><path d="M84.72 5.16C86.02 4.81 92.58 3.1 104.37 0C104.38 0 104.39 0 104.39 0C104.62 3.89 104.15 7.57 99.05 8.9C99.04 8.9 99 8.91 98.95 8.92C91.53 10.87 87.38 11.96 86.57 12.17C84.63 12.68 82.65 11.54 82.13 9.59C81.62 7.65 82.78 5.67 84.72 5.16Z" id="gR4CyhSx6"/><path d="M84.72 5.16C86.02 4.81 92.58 3.1 104.37 0C104.38 0 104.39 0 104.39 0C104.62 3.89 104.15 7.57 99.05 8.9C99.04 8.9 99 8.91 98.95 8.92C91.53 10.87 87.38 11.96 86.57 12.17C84.63 12.68 82.65 11.54 82.13 9.59C81.62 7.65 82.78 5.67 84.72 5.16Z" id="cipVlAyA"/><path d="M84.72 5.16C86.02 4.81 92.58 3.1 104.37 0C104.38 0 104.39 0 104.39 0C104.62 3.89 104.15 7.57 99.05 8.9C99.04 8.9 99 8.91 98.95 8.92C91.53 10.87 87.38 11.96 86.57 12.17C84.63 12.68 82.65 11.54 82.13 9.59C81.62 7.65 82.78 5.67 84.72 5.16Z" id="h5CXzZd0Gh"/><path d="M84.72 5.16C86.02 4.81 92.58 3.1 104.37 0C104.38 0 104.39 0 104.39 0C104.62 3.89 104.15 7.57 99.05 8.9C99.04 8.9 99 8.91 98.95 8.92C91.53 10.87 87.38 11.96 86.57 12.17C84.63 12.68 82.65 11.54 82.13 9.59C81.62 7.65 82.78 5.67 84.72 5.16Z" id="b7ZRS8IVi"/><path d="M84.72 5.16C86.02 4.81 92.58 3.1 104.37 0C104.38 0 104.39 0 104.39 0C104.62 3.89 104.15 7.57 99.05 8.9C99.04 8.9 99 8.91 98.95 8.92C91.53 10.87 87.38 11.96 86.57 12.17C84.63 12.68 82.65 11.54 82.13 9.59C81.62 7.65 82.78 5.67 84.72 5.16Z" id="arOGCbmnQ"/><path d="M84.72 5.16C86.02 4.81 92.58 3.1 104.37 0C104.38 0 104.39 0 104.39 0C104.62 3.89 104.15 7.57 99.05 8.9C99.04 8.9 99 8.91 98.95 8.92C91.53 10.87 87.38 11.96 86.57 12.17C84.63 12.68 82.65 11.54 82.13 9.59C81.62 7.65 82.78 5.67 84.72 5.16Z" id="cVtih1MSK"/><path d="M84.72 5.16C86.02 4.81 92.58 3.1 104.37 0C104.38 0 104.39 0 104.39 0C104.62 3.89 104.15 7.57 99.05 8.9C99.04 8.9 99 8.91 98.95 8.92C91.53 10.87 87.38 11.96 86.57 12.17C84.63 12.68 82.65 11.54 82.13 9.59C81.62 7.65 82.78 5.67 84.72 5.16Z" id="a3R3jxZ3KM"/><path d="M84.72 5.16C86.02 4.81 92.58 3.1 104.37 0C104.38 0 104.39 0 104.39 0C104.62 3.89 104.15 7.57 99.05 8.9C99.04 8.9 99 8.91 98.95 8.92C91.53 10.87 87.38 11.96 86.57 12.17C84.63 12.68 82.65 11.54 82.13 9.59C81.62 7.65 82.78 5.67 84.72 5.16Z" id="b1uzPRBdmf"/></defs><g><g><g><use xlink:href="#d4MjIqHsU2" opacity="1" fill="#ececec" fill-opacity="1"/><g><use xlink:href="#d4MjIqHsU2" opacity="1" fill-opacity="0" stroke="#000000" stroke-width="1" stroke-opacity="0"/></g></g><g><use xlink:href="#e7Tr3TCFi9" opacity="1" fill="#000000" fill-opacity="0"/><g><use xlink:href="#e7Tr3TCFi9" opacity="1" fill-opacity="0" stroke="#000000" stroke-width="1" stroke-opacity="0"/></g></g><g><use xlink:href="#hwGSm9XML" opacity="1" fill="#000000" fill-opacity="0"/><g><use xlink:href="#hwGSm9XML" opacity="1" fill-opacity="0" stroke="#000000" stroke-width="1" stroke-opacity="0"/></g></g><g><use xlink:href="#iMY2LSTo8" opacity="1" fill="#000000" fill-opacity="0"/><g><use xlink:href="#iMY2LSTo8" opacity="1" fill-opacity="0" stroke="#000000" stroke-width="1" stroke-opacity="0"/></g></g><g><use xlink:href="#fQecow7l4" opacity="1" fill="#222222" fill-opacity="1"/><g><use xlink:href="#fQecow7l4" opacity="1" fill-opacity="0" stroke="#000000" stroke-width="1" stroke-opacity="0"/></g></g><g><use xlink:href="#b3gvKvXDI9" opacity="1" fill="#000000" fill-opacity="0"/><g><use xlink:href="#b3gvKvXDI9" opacity="1" fill-opacity="0" stroke="#000000" stroke-width="1" stroke-opacity="0"/></g></g><g><use xlink:href="#a9Avr1Wng" opacity="1" fill="#000000" fill-opacity="0"/><g><use xlink:href="#a9Avr1Wng" opacity="1" fill-opacity="0" stroke="#000000" stroke-width="1" stroke-opacity="0"/></g></g><g><use xlink:href="#a7D8uYLUp" opacity="1" fill="#000000" fill-opacity="0"/><g><use xlink:href="#a7D8uYLUp" opacity="1" fill-opacity="0" stroke="#000000" stroke-width="1" stroke-opacity="0"/></g></g><g><use xlink:href="#c6fuoJrH6i" opacity="1" fill="#fbcd02" fill-opacity="1"/><g><use xlink:href="#c6fuoJrH6i" opacity="1" fill-opacity="0" stroke="#000000" stroke-width="1" stroke-opacity="0"/></g></g><g><use xlink:href="#d5pBJgvQF" opacity="1" fill="#000000" fill-opacity="0"/><g><use xlink:href="#d5pBJgvQF" opacity="1" fill-opacity="0" stroke="#000000" stroke-width="1" stroke-opacity="0"/></g></g><g><use xlink:href="#b1QOuv86M" opacity="1" fill="#000000" fill-opacity="0"/><g><use xlink:href="#b1QOuv86M" opacity="1" fill-opacity="0" stroke="#000000" stroke-width="1" stroke-opacity="0"/></g></g><g><use xlink:href="#eJOR7nOdo" opacity="1" fill="#000000" fill-opacity="0"/><g><use xlink:href="#eJOR7nOdo" opacity="1" fill-opacity="0" stroke="#000000" stroke-width="1" stroke-opacity="0"/></g></g><g><use xlink:href="#awr1COCXq" opacity="1" fill="#000000" fill-opacity="0"/><g><use xlink:href="#awr1COCXq" opacity="1" fill-opacity="0" stroke="#000000" stroke-width="1" stroke-opacity="0"/></g></g><g><use xlink:href="#cVk8sa7d" opacity="1" fill="#000000" fill-opacity="0"/><g><use xlink:href="#cVk8sa7d" opacity="1" fill-opacity="0" stroke="#000000" stroke-width="1" stroke-opacity="0"/></g></g><g><use xlink:href="#aefHz4dSs" opacity="1" fill="#000000" fill-opacity="0"/><g><use xlink:href="#aefHz4dSs" opacity="1" fill-opacity="0" stroke="#000000" stroke-width="1" stroke-opacity="0"/></g></g><g><use xlink:href="#o258n1nBCK" opacity="1" fill="#000000" fill-opacity="0"/><g><use xlink:href="#o258n1nBCK" opacity="1" fill-opacity="0" stroke="#000000" stroke-width="1" stroke-opacity="0"/></g></g><g><use xlink:href="#b7xgagv04" opacity="1" fill="#fbcd02" fill-opacity="1"/><g><use xlink:href="#b7xgagv04" opacity="1" fill-opacity="0" stroke="#000000" stroke-width="1" stroke-opacity="0"/></g></g><g><use xlink:href="#boJh2g2j3" opacity="1" fill="#000000" fill-opacity="0"/><g><use xlink:href="#boJh2g2j3" opacity="1" fill-opacity="0" stroke="#000000" stroke-width="1" stroke-opacity="0"/></g></g><g><use xlink:href="#gN5EmQbfv" opacity="1" fill="#000000" fill-opacity="0"/><g><use xlink:href="#gN5EmQbfv" opacity="1" fill-opacity="0" stroke="#000000" stroke-width="1" stroke-opacity="0"/></g></g><g><use xlink:href="#prGLOGy8" opacity="1" fill="#000000" fill-opacity="0"/><g><use xlink:href="#prGLOGy8" opacity="1" fill-opacity="0" stroke="#000000" stroke-width="1" stroke-opacity="0"/></g></g><g><use xlink:href="#a5G1iBEoTA" opacity="1" fill="#000000" fill-opacity="0"/><g><use xlink:href="#a5G1iBEoTA" opacity="1" fill-opacity="0" stroke="#000000" stroke-width="1" stroke-opacity="0"/></g></g><g><use xlink:href="#e2NCwUvtzR" opacity="1" fill="#000000" fill-opacity="0"/><g><use xlink:href="#e2NCwUvtzR" opacity="1" fill-opacity="0" stroke="#000000" stroke-width="1" stroke-opacity="0"/></g></g><g><use xlink:href="#gvqxw4k4F" opacity="1" fill="#000000" fill-opacity="0"/><g><use xlink:href="#gvqxw4k4F" opacity="1" fill-opacity="0" stroke="#000000" stroke-width="1" stroke-opacity="0"/></g></g><g><use xlink:href="#a2GmkGCw7e" opacity="1" fill="#000000" fill-opacity="0"/><g><use xlink:href="#a2GmkGCw7e" opacity="1" fill-opacity="0" stroke="#000000" stroke-width="1" stroke-opacity="0"/></g></g><g><use xlink:href="#b2Mv1AVPHd" opacity="1" fill="#fbcd02" fill-opacity="1"/><g><use xlink:href="#b2Mv1AVPHd" opacity="1" fill-opacity="0" stroke="#000000" stroke-width="1" stroke-opacity="0"/></g></g><g><use xlink:href="#a2GM0Zb2gD" opacity="1" fill="#000000" fill-opacity="0"/><g><use xlink:href="#a2GM0Zb2gD" opacity="1" fill-opacity="0" stroke="#000000" stroke-width="1" stroke-opacity="0"/></g></g><g><use xlink:href="#a4cqaabimJ" opacity="1" fill="#000000" fill-opacity="0"/><g><use xlink:href="#a4cqaabimJ" opacity="1" fill-opacity="0" stroke="#000000" stroke-width="1" stroke-opacity="0"/></g></g><g><use xlink:href="#b4hkjHHrx" opacity="1" fill="#000000" fill-opacity="0"/><g><use xlink:href="#b4hkjHHrx" opacity="1" fill-opacity="0" stroke="#000000" stroke-width="1" stroke-opacity="0"/></g></g><g><use xlink:href="#a4xWFQbUEJ" opacity="1" fill="#000000" fill-opacity="0"/><g><use xlink:href="#a4xWFQbUEJ" opacity="1" fill-opacity="0" stroke="#000000" stroke-width="1" stroke-opacity="0"/></g></g><g><use xlink:href="#a4480DxMms" opacity="1" fill="#000000" fill-opacity="0"/><g><use xlink:href="#a4480DxMms" opacity="1" fill-opacity="0" stroke="#000000" stroke-width="1" stroke-opacity="0"/></g></g><g><use xlink:href="#frppPxtuQ" opacity="1" fill="#000000" fill-opacity="0"/><g><use xlink:href="#frppPxtuQ" opacity="1" fill-opacity="0" stroke="#000000" stroke-width="1" stroke-opacity="0"/></g></g><g><use xlink:href="#acI4NOYoX" opacity="1" fill="#000000" fill-opacity="0"/><g><use xlink:href="#acI4NOYoX" opacity="1" fill-opacity="0" stroke="#000000" stroke-width="1" stroke-opacity="0"/></g></g><g><use xlink:href="#gR4CyhSx6" opacity="1" fill="#ffe15c" fill-opacity="1"/><g><use xlink:href="#gR4CyhSx6" opacity="1" fill-opacity="0" stroke="#000000" stroke-width="1" stroke-opacity="0"/></g></g><g><use xlink:href="#cipVlAyA" opacity="1" fill="#000000" fill-opacity="0"/><g><use xlink:href="#cipVlAyA" opacity="1" fill-opacity="0" stroke="#000000" stroke-width="1" stroke-opacity="0"/></g></g><g><use xlink:href="#h5CXzZd0Gh" opacity="1" fill="#000000" fill-opacity="0"/><g><use xlink:href="#h5CXzZd0Gh" opacity="1" fill-opacity="0" stroke="#000000" stroke-width="1" stroke-opacity="0"/></g></g><g><use xlink:href="#b7ZRS8IVi" opacity="1" fill="#000000" fill-opacity="0"/><g><use xlink:href="#b7ZRS8IVi" opacity="1" fill-opacity="0" stroke="#000000" stroke-width="1" stroke-opacity="0"/></g></g><g><use xlink:href="#arOGCbmnQ" opacity="1" fill="#000000" fill-opacity="0"/><g><use xlink:href="#arOGCbmnQ" opacity="1" fill-opacity="0" stroke="#000000" stroke-width="1" stroke-opacity="0"/></g></g><g><use xlink:href="#cVtih1MSK" opacity="1" fill="#000000" fill-opacity="0"/><g><use xlink:href="#cVtih1MSK" opacity="1" fill-opacity="0" stroke="#000000" stroke-width="1" stroke-opacity="0"/></g></g><g><use xlink:href="#a3R3jxZ3KM" opacity="1" fill="#000000" fill-opacity="0"/><g><use xlink:href="#a3R3jxZ3KM" opacity="1" fill-opacity="0" stroke="#000000" stroke-width="1" stroke-opacity="0"/></g></g><g><use xlink:href="#b1uzPRBdmf" opacity="1" fill="#000000" fill-opacity="0"/><g><use xlink:href="#b1uzPRBdmf" opacity="1" fill-opacity="0" stroke="#000000" stroke-width="1" stroke-opacity="0"/></g></g></g></g></svg>