<svg width="143" height="40" viewBox="0 0 143 40" fill="none" xmlns="http://www.w3.org/2000/svg">
<path fill-rule="evenodd" clip-rule="evenodd" d="M22.0461 4.69455C23.9594 3.3751 26.0321 2.53066 28.3174 2.21399C36.0769 1.15844 41.4979 6.38344 42.1888 12.664C42.614 16.3584 41.4979 19.6307 38.9468 22.4279C38.8405 22.5334 38.7342 22.6918 38.7342 22.8501C38.3091 25.014 37.3524 25.8584 35.1734 26.1223C35.1468 26.1223 35.1335 26.1355 35.1202 26.1487C35.107 26.1619 35.0937 26.1751 35.0671 26.1751C34.9077 28.4445 33.4195 29.764 31.3468 29.8168C31.3468 30.9251 30.9748 31.9279 30.0181 32.6668C29.1147 33.4057 28.0517 33.6168 26.8825 33.3529C26.723 34.6723 25.8727 35.464 25.0223 36.2557C24.67 36.5705 24.3411 36.9086 24.0045 37.2545L24.0045 37.2545L24.0039 37.2551C23.833 37.4308 23.66 37.6085 23.4811 37.7862C22.365 38.8945 21.0895 39.2112 19.6545 38.6834C18.2195 38.1557 17.4755 37.0473 17.4223 35.464C17.4223 35.4112 17.4223 35.3584 17.3692 35.2529C16.3594 35.3057 15.4559 34.9362 14.7119 34.2501C13.9678 33.564 13.6489 32.6668 13.6489 31.6112C12.6391 31.5584 11.7356 31.2945 10.9916 30.5557C10.2475 29.8695 9.98178 28.9723 9.92864 27.9695C9.84893 27.9695 9.76922 27.9564 9.68951 27.9432L9.68948 27.9432L9.68944 27.9432C9.60973 27.93 9.53002 27.9168 9.45031 27.9168C7.43073 27.6529 6.20836 26.2279 6.2615 24.2223C6.2615 24.0112 6.15521 23.7473 5.99577 23.6418C3.8699 21.689 2.27549 19.4195 1.58458 16.6223C0.57479 12.5584 1.05311 8.75844 3.7636 5.48621C8.22794 0.0501037 16.5188 -0.319341 21.7804 4.53621C21.9398 4.58899 21.993 4.64177 22.0461 4.69455ZM23.2685 29.4473C23.3308 29.4473 23.3748 29.4654 23.4113 29.4804C23.4371 29.491 23.4591 29.5001 23.4811 29.5001C24.6503 29.5529 25.5538 30.0279 26.2447 30.8723C26.4573 31.1362 26.723 31.3473 27.0419 31.5057C27.8391 31.9807 28.8489 31.664 29.3272 30.8723C29.7524 30.1334 29.6461 29.3418 28.9021 28.6029L21.7804 21.5307L21.4084 21.1612C21.0895 20.7918 21.1426 20.3168 21.4615 20.0001C21.7804 19.6834 22.2587 19.6307 22.6307 19.9473C22.7397 20.0195 22.8238 20.1162 22.9001 20.204C22.9355 20.2446 22.9691 20.2833 23.0028 20.3168L30.1776 27.4418C30.6559 27.9168 31.1874 28.1807 31.8783 28.0223C32.5692 27.864 32.9944 27.4418 33.1538 26.7557C33.3664 26.0695 33.1007 25.5418 32.6223 25.0668C31.3734 23.8529 30.1377 22.6258 28.902 21.3987C27.6664 20.1716 26.4307 18.9445 25.1818 17.7307C24.7566 17.3084 24.7035 16.7807 25.0755 16.4112C25.4475 16.0418 25.979 16.0945 26.4042 16.5168C27.1216 17.2293 27.8391 17.9286 28.5566 18.6279C29.2741 19.3272 29.9916 20.0265 30.7091 20.739L33.8979 23.9057C34.8014 24.7501 36.0769 24.5918 36.6615 23.589C37.0867 22.9029 36.9272 22.1112 36.2895 21.4251C32.8881 17.889 29.4335 14.4584 25.979 11.0279C25.9258 10.9751 25.8195 10.8695 25.6601 10.764C25.607 10.8168 25.5671 10.8695 25.5272 10.9223C25.4874 10.9751 25.4475 11.0279 25.3944 11.0807C25.0747 11.3982 24.7583 11.7157 24.4427 12.0323C23.4994 12.979 22.5634 13.9183 21.5678 14.8279C18.8573 17.3084 14.7119 16.8862 12.3734 13.9834C13.7551 12.6377 15.1368 11.2788 16.5186 9.91984L16.5188 9.91955L16.5193 9.91912C17.901 8.56023 19.2826 7.20135 20.6643 5.85566C16.2 1.36955 8.28108 2.00288 4.72024 7.1751C2.48808 10.3945 2.43493 13.8779 3.7636 17.414C4.45451 19.2612 5.62374 20.8445 7.165 22.164L9.87549 19.4723C10.8321 18.5223 11.9482 18.2584 13.2237 18.6279C14.4993 18.9973 15.3496 19.8418 15.6685 21.1084C15.7382 21.3161 15.7622 21.5465 15.7855 21.7699L15.7855 21.7699C15.7977 21.887 15.8097 22.0023 15.8279 22.1112C16.8377 22.1112 17.7412 22.4279 18.4321 23.1668C19.1762 23.9057 19.4419 24.8029 19.4951 25.7529C22.0461 25.8584 23.3216 27.6001 23.2685 29.4473ZM38.3091 20.5279C38.2559 20.5279 38.2028 20.6334 38.2028 20.6334C37.1538 19.6178 36.1178 18.6021 35.0947 17.5992L35.0944 17.5989L35.0942 17.5987L35.0939 17.5985L35.0937 17.5982L35.0931 17.5976C34.0433 16.5685 33.0071 15.5527 31.9846 14.564L26.6699 9.28621C25.9258 8.54733 25.5538 8.54733 24.8098 9.28621C24.3295 9.76318 23.8551 10.2402 23.3827 10.7151C22.4438 11.6592 21.5127 12.5955 20.558 13.5084C19.0167 14.9862 16.6251 15.2501 15.0307 14.089V13.9834C15.9401 13.0996 16.8282 12.2089 17.7133 11.3213L17.7133 11.3212L17.7133 11.3212L17.7133 11.3212L17.7133 11.3212L17.7134 11.3212C19.2594 9.77056 20.7958 8.2297 22.4181 6.75288C25.8195 3.63899 31.1874 2.95288 35.1202 5.01121C38.2028 6.59455 39.9035 9.23344 40.4349 12.6112C40.8601 15.3557 40.1692 17.8362 38.6279 20.1057C38.5748 20.1848 38.5216 20.2508 38.4685 20.3168C38.4153 20.3827 38.3622 20.4487 38.3091 20.5279ZM15.6095 23.9538L15.6095 23.9538C15.4202 24.0151 15.2031 24.0854 15.0307 24.2223C14.0209 25.1195 13.0643 26.0695 12.1608 27.0723C11.5762 27.7584 11.6825 28.7084 12.3734 29.3418C13.0112 29.9751 14.0209 29.9751 14.6587 29.3945C15.5622 28.5501 16.4657 27.6529 17.316 26.7557C17.8475 26.2279 17.9538 25.5945 17.6349 24.9084C17.316 24.2751 16.7846 23.9584 15.8811 23.8529C15.8064 23.89 15.7121 23.9205 15.6096 23.9537L15.6095 23.9537L15.6095 23.9538ZM21.5147 29.289C21.5147 29.289 21.5678 29.3418 21.6209 29.3418C21.4881 29.5265 21.3818 29.7376 21.2755 29.9487C21.1692 30.1598 21.0629 30.3709 20.93 30.5557C20.1328 31.4001 19.3356 32.1918 18.4853 32.9834C17.7412 33.7223 16.7314 33.7223 15.9874 32.9834C15.3496 32.2973 15.3496 31.2945 16.0937 30.5557C16.8909 29.7112 17.7412 28.8668 18.5916 28.0751C19.123 27.5473 19.7608 27.4418 20.4517 27.7584C21.1426 28.0223 21.5147 28.5501 21.5147 29.289ZM19.0699 35.3584C19.1762 36.0973 19.6014 36.7307 20.2391 36.9945C20.93 37.2584 21.5678 37.1529 22.0993 36.6251C22.3808 36.3455 22.6681 36.066 22.9574 35.7845C23.542 35.2158 24.1346 34.6392 24.7035 34.039C25.3944 33.3529 25.3412 32.3501 24.7035 31.7168C24.0126 31.0307 23.0028 30.9779 22.3119 31.664C21.4084 32.5084 20.558 33.3529 19.7077 34.2501C19.5305 34.4612 19.4006 34.7192 19.2707 34.9773L19.2706 34.9773C19.2057 35.1063 19.1407 35.2353 19.0699 35.3584ZM9.13143 26.0168C8.49367 25.7001 8.12164 25.1723 8.01535 24.3807C8.02973 24.3473 8.0441 24.3136 8.0586 24.2796C8.20484 23.9364 8.36298 23.5652 8.65311 23.3251C9.25179 22.6513 9.91041 22.0073 10.5614 21.3707C10.7773 21.1596 10.9924 20.9493 11.2042 20.739C11.8951 20.0529 12.9049 20.1057 13.5958 20.7918C14.2335 21.4251 14.2867 22.4279 13.5958 23.114C13.3143 23.3935 13.0327 23.6789 12.7493 23.9662C12.1766 24.5467 11.596 25.1352 10.9916 25.7001C10.4601 26.2279 9.82234 26.3334 9.13143 26.0168Z" fill="#1E88E5"/>
<path d="M28.3174 2.21399L28.2837 1.96627L28.2831 1.96636L28.3174 2.21399ZM22.0461 4.69455L21.87 4.87194L22.0172 5.01817L22.188 4.90035L22.0461 4.69455ZM42.1888 12.664L41.9403 12.6913L41.9404 12.6926L42.1888 12.664ZM38.9468 22.4279L39.1232 22.6055L39.1315 22.5963L38.9468 22.4279ZM38.7342 22.8501L38.9795 22.8983L38.9842 22.8744V22.8501H38.7342ZM35.1734 26.1223V26.3723H35.1885L35.2034 26.3705L35.1734 26.1223ZM35.1202 26.1487L35.2964 26.3261L35.2964 26.3261L35.1202 26.1487ZM35.0671 26.1751V25.9251H34.834L34.8177 26.1576L35.0671 26.1751ZM31.3468 29.8168L31.3405 29.5669L31.0968 29.5731V29.8168H31.3468ZM30.0181 32.6668L29.8653 32.4688L29.8599 32.4732L30.0181 32.6668ZM26.8825 33.3529L26.9375 33.109L26.6675 33.0481L26.6343 33.3229L26.8825 33.3529ZM25.0223 36.2557L25.189 36.4421L25.1927 36.4386L25.0223 36.2557ZM24.0045 37.2545L24.1813 37.4313L24.1837 37.4288L24.0045 37.2545ZM24.0045 37.2545L23.8277 37.0778L23.8259 37.0796L24.0045 37.2545ZM24.0039 37.2551L23.8254 37.0801L23.8247 37.0808L24.0039 37.2551ZM23.4811 37.7862L23.3049 37.6088L23.4811 37.7862ZM17.4223 35.464H17.1722L17.1725 35.4724L17.4223 35.464ZM17.3692 35.2529L17.5925 35.1405L17.5191 34.9947L17.3561 35.0032L17.3692 35.2529ZM13.6489 31.6112H13.8989V31.3739L13.662 31.3616L13.6489 31.6112ZM10.9916 30.5557L11.1679 30.3781L11.161 30.3719L10.9916 30.5557ZM9.92864 27.9695L10.1783 27.9563L10.1657 27.7195H9.92864V27.9695ZM9.68951 27.9432L9.64478 28.1892L9.64869 28.1898L9.68951 27.9432ZM9.68948 27.9432L9.7342 27.6972L9.73058 27.6966L9.68948 27.9432ZM9.68944 27.9432L9.73054 27.6966L9.73026 27.6965L9.68944 27.9432ZM9.45031 27.9168L9.41792 28.1647L9.43405 28.1668H9.45031V27.9168ZM6.2615 24.2223L6.5115 24.229V24.2223H6.2615ZM5.99577 23.6418L5.82665 23.8259L5.84124 23.8393L5.85776 23.8502L5.99577 23.6418ZM1.58458 16.6223L1.82729 16.5624L1.8272 16.562L1.58458 16.6223ZM3.7636 5.48621L3.95613 5.64569L3.9568 5.64488L3.7636 5.48621ZM21.7804 4.53621L21.6108 4.71994L21.6505 4.75657L21.7018 4.77355L21.7804 4.53621ZM23.4113 29.4804L23.3162 29.7116L23.3162 29.7116L23.4113 29.4804ZM23.2685 29.4473L23.0186 29.4401L23.0112 29.6973H23.2685V29.4473ZM23.4811 29.5001L23.4924 29.2501H23.4811V29.5001ZM26.2447 30.8723L26.4394 30.7155L26.4382 30.714L26.2447 30.8723ZM27.0419 31.5057L27.1699 31.2909L27.1617 31.286L27.1531 31.2817L27.0419 31.5057ZM29.3272 30.8723L29.5413 31.0016L29.5439 30.997L29.3272 30.8723ZM28.9021 28.6029L28.7259 28.7803L28.9021 28.6029ZM21.7804 21.5307L21.9565 21.3533V21.3533L21.7804 21.5307ZM21.4084 21.1612L21.2191 21.3246L21.2254 21.3318L21.2322 21.3386L21.4084 21.1612ZM21.4615 20.0001L21.2853 19.8227L21.2853 19.8227L21.4615 20.0001ZM22.6307 19.9473L22.4687 20.1377L22.4802 20.1475L22.4927 20.1558L22.6307 19.9473ZM22.9001 20.204L22.7114 20.368L22.7114 20.368L22.9001 20.204ZM23.0028 20.3168L23.1789 20.1394L23.1789 20.1394L23.0028 20.3168ZM30.1776 27.4418L30.0014 27.6192L30.1776 27.4418ZM31.8783 28.0223L31.9341 28.266H31.9341L31.8783 28.0223ZM33.1538 26.7557L32.915 26.6817L32.9123 26.6903L32.9103 26.6991L33.1538 26.7557ZM32.6223 25.0668L32.7985 24.8894L32.7966 24.8875L32.6223 25.0668ZM28.902 21.3987L29.0782 21.2213L28.902 21.3987ZM25.1818 17.7307L25.0056 17.9081L25.0075 17.9099L25.1818 17.7307ZM25.0755 16.4112L24.8993 16.2338L24.8993 16.2338L25.0755 16.4112ZM26.4042 16.5168L26.228 16.6942L26.4042 16.5168ZM28.5566 18.6279L28.7311 18.4489L28.5566 18.6279ZM30.7091 20.739L30.5329 20.9164L30.7091 20.739ZM33.8979 23.9057L33.7216 24.0831L33.7272 24.0883L33.8979 23.9057ZM36.6615 23.589L36.4489 23.4573L36.4455 23.4631L36.6615 23.589ZM36.2895 21.4251L36.4726 21.2549L36.4697 21.2518L36.2895 21.4251ZM25.979 11.0279L25.8028 11.2053L25.8028 11.2053L25.979 11.0279ZM25.6601 10.764L25.7981 10.5555L25.6284 10.4432L25.4839 10.5866L25.6601 10.764ZM25.5272 10.9223L25.7267 11.073L25.7267 11.073L25.5272 10.9223ZM25.3944 11.0807L25.2182 10.9033L25.3944 11.0807ZM24.4427 12.0323L24.6198 12.2088L24.4427 12.0323ZM21.5678 14.8279L21.3992 14.6433L21.399 14.6435L21.5678 14.8279ZM12.3734 13.9834L12.199 13.8043L12.036 13.9631L12.1787 14.1403L12.3734 13.9834ZM16.5186 9.91984L16.3435 9.74134L16.3433 9.7416L16.5186 9.91984ZM16.5188 9.91955L16.3438 9.74104L16.3438 9.74105L16.5188 9.91955ZM16.5193 9.91912L16.6943 10.0976L16.6946 10.0974L16.5193 9.91912ZM20.6643 5.85566L20.8387 6.03475L21.0198 5.85844L20.8415 5.67931L20.6643 5.85566ZM4.72024 7.1751L4.92569 7.31755L4.92616 7.31687L4.72024 7.1751ZM3.7636 17.414L3.99776 17.3264L3.99763 17.3261L3.7636 17.414ZM7.165 22.164L7.00242 22.3539L7.17756 22.5038L7.34116 22.3414L7.165 22.164ZM9.87549 19.4723L9.69933 19.2949L9.87549 19.4723ZM13.2237 18.6279L13.2933 18.3878L13.2237 18.6279ZM15.6685 21.1084L15.4261 21.1695L15.4284 21.1788L15.4315 21.188L15.6685 21.1084ZM15.7855 21.7699L15.5368 21.7958L15.5376 21.8034L15.5389 21.811L15.7855 21.7699ZM15.7855 21.7699L16.0341 21.744L16.0333 21.7364L16.0321 21.7288L15.7855 21.7699ZM15.8279 22.1112L15.5814 22.1526L15.6164 22.3612H15.8279V22.1112ZM18.4321 23.1668L18.2494 23.3376L18.256 23.3442L18.4321 23.1668ZM19.4951 25.7529L19.2455 25.7668L19.2581 25.9933L19.4847 26.0027L19.4951 25.7529ZM38.2028 20.6334L38.0289 20.813L38.2731 21.0496L38.4261 20.7459L38.2028 20.6334ZM38.3091 20.5279V20.7779H38.4423L38.5166 20.6672L38.3091 20.5279ZM35.0947 17.5992L35.2697 17.4206L35.2673 17.4183L35.0947 17.5992ZM35.0944 17.5989L34.9197 17.7778L34.9218 17.7798L35.0944 17.5989ZM35.0937 17.5982L35.2684 17.4194L35.2679 17.4189L35.0937 17.5982ZM35.0931 17.5976L34.9181 17.7761L34.9188 17.7769L35.0931 17.5976ZM31.9846 14.564L31.8084 14.7414L31.8108 14.7437L31.9846 14.564ZM26.6699 9.28621L26.8461 9.10882L26.6699 9.28621ZM24.8098 9.28621L24.6336 9.10882L24.8098 9.28621ZM23.3827 10.7151L23.2055 10.5388L23.3827 10.7151ZM20.558 13.5084L20.3852 13.3278L20.385 13.328L20.558 13.5084ZM15.0307 14.089H14.7807V14.2162L14.8836 14.2911L15.0307 14.089ZM15.0307 13.9834L14.8565 13.8042L14.7807 13.8778V13.9834H15.0307ZM17.7133 11.3213L17.5365 11.1445L17.5362 11.1447L17.7133 11.3213ZM17.7134 11.3212L17.8901 11.4979L17.8904 11.4977L17.7134 11.3212ZM22.4181 6.75288L22.5864 6.93776L22.587 6.93728L22.4181 6.75288ZM35.1202 5.01121L35.0043 5.23272L35.006 5.23359L35.1202 5.01121ZM40.4349 12.6112L40.682 12.5729L40.6819 12.5724L40.4349 12.6112ZM38.6279 20.1057L38.4211 19.9652L38.4204 19.9663L38.6279 20.1057ZM38.4685 20.3168L38.6632 20.4736L38.6632 20.4736L38.4685 20.3168ZM15.6095 23.9538L15.6866 24.1917L15.6949 24.1887L15.6095 23.9538ZM15.6095 23.9538L15.5408 23.7134L15.5323 23.7158L15.5241 23.7188L15.6095 23.9538ZM15.0307 24.2223L14.875 24.0263L14.8647 24.0354L15.0307 24.2223ZM12.1608 27.0723L11.975 26.9049L11.9705 26.9102L12.1608 27.0723ZM12.3734 29.3418L12.5497 29.1642L12.5423 29.1575L12.3734 29.3418ZM14.6587 29.3945L14.827 29.5794L14.8294 29.5772L14.6587 29.3945ZM17.316 26.7557L17.1398 26.5782L17.1346 26.5837L17.316 26.7557ZM17.6349 24.9084L17.8618 24.803L17.8582 24.796L17.6349 24.9084ZM15.8811 23.8529L15.9101 23.6046L15.8364 23.596L15.7699 23.629L15.8811 23.8529ZM15.6096 23.9537L15.5325 23.7158L15.5275 23.7176L15.6096 23.9537ZM15.6095 23.9537L15.6783 24.1945L15.6917 24.1899L15.6095 23.9537ZM21.6209 29.3418L21.8239 29.4878L22.1087 29.0918H21.6209V29.3418ZM21.5147 29.289H21.2647V29.3931L21.3385 29.4664L21.5147 29.289ZM21.2755 29.9487L21.4988 30.0611V30.0611L21.2755 29.9487ZM20.93 30.5557L21.1118 30.7273L21.1233 30.7152L21.133 30.7016L20.93 30.5557ZM18.4853 32.9834L18.3148 32.8004L18.3091 32.806L18.4853 32.9834ZM15.9874 32.9834L15.8041 33.1538L15.8112 33.1608L15.9874 32.9834ZM16.0937 30.5557L16.2699 30.7331L16.2755 30.7273L16.0937 30.5557ZM18.5916 28.0751L18.762 28.2582L18.7677 28.2525L18.5916 28.0751ZM20.4517 27.7584L20.3475 27.9857L20.3549 27.9891L20.3625 27.992L20.4517 27.7584ZM20.2391 36.9945L20.1435 37.2256L20.1499 37.2281L20.2391 36.9945ZM19.0699 35.3584L18.8532 35.2337L18.8101 35.3086L18.8224 35.394L19.0699 35.3584ZM22.0993 36.6251L22.2754 36.8025H22.2754L22.0993 36.6251ZM22.9574 35.7845L22.7831 35.6053L22.7831 35.6053L22.9574 35.7845ZM24.7035 34.039L24.5272 33.8615L24.522 33.867L24.7035 34.039ZM24.7035 31.7168L24.5273 31.8942L24.7035 31.7168ZM22.3119 31.664L22.4826 31.8467L22.488 31.8414L22.3119 31.664ZM19.7077 34.2501L19.5262 34.0781L19.521 34.0836L19.5162 34.0894L19.7077 34.2501ZM19.2707 34.9773L19.0474 34.8648L19.0471 34.8655L19.2707 34.9773ZM19.2706 34.9773L19.4939 35.0898L19.4942 35.0892L19.2706 34.9773ZM8.01535 24.3807L7.78581 24.2816L7.75835 24.3452L7.76757 24.4139L8.01535 24.3807ZM9.13143 26.0168L9.0202 26.2408L9.02727 26.244L9.13143 26.0168ZM8.0586 24.2796L8.28859 24.3776L8.28859 24.3776L8.0586 24.2796ZM8.65311 23.3251L8.8125 23.5177L8.82727 23.5055L8.84 23.4912L8.65311 23.3251ZM10.5614 21.3707L10.7362 21.5494L10.5614 21.3707ZM11.2042 20.739L11.3803 20.9164L11.2042 20.739ZM13.5958 20.7918L13.4196 20.9692L13.5958 20.7918ZM13.5958 23.114L13.7719 23.2914H13.7719L13.5958 23.114ZM12.7493 23.9662L12.9273 24.1418L12.7493 23.9662ZM10.9916 25.7001L10.8208 25.5174L10.8154 25.5227L10.9916 25.7001ZM28.2831 1.96636C25.9563 2.28877 23.8472 3.14883 21.9042 4.48874L22.188 4.90035C24.0717 3.60138 26.1079 2.77255 28.3518 2.46163L28.2831 1.96636ZM42.4373 12.6367C41.732 6.22561 36.1915 0.890538 28.2837 1.96627L28.3511 2.46171C35.9622 1.42634 41.2637 6.54126 41.9403 12.6913L42.4373 12.6367ZM39.1315 22.5963C41.7287 19.7485 42.871 16.4053 42.4371 12.6354L41.9404 12.6926C42.3569 16.3116 41.267 19.5128 38.7621 22.2594L39.1315 22.5963ZM38.9842 22.8501C38.9842 22.7922 39.0328 22.6948 39.123 22.6053L38.7707 22.2505C38.6483 22.372 38.4842 22.5913 38.4842 22.8501H38.9842ZM35.2034 26.3705C36.3163 26.2357 37.1601 25.9483 37.7799 25.3835C38.4006 24.8179 38.7619 24.0059 38.9795 22.8983L38.4889 22.8019C38.2814 23.8582 37.9518 24.5504 37.4431 25.0139C36.9336 25.4783 36.2095 25.745 35.1433 25.8741L35.2034 26.3705ZM35.2964 26.3261C35.3063 26.3163 35.2921 26.3321 35.2698 26.3453C35.2402 26.363 35.206 26.3723 35.1734 26.3723V25.8723C35.0376 25.8723 34.9602 25.9553 34.9441 25.9713L35.2964 26.3261ZM35.0671 26.4251C35.2029 26.4251 35.2802 26.3422 35.2964 26.3261L34.9441 25.9713C34.9342 25.9811 34.9484 25.9654 34.9707 25.9521C35.0003 25.9344 35.0345 25.9251 35.0671 25.9251V26.4251ZM31.3532 30.0667C32.4418 30.039 33.3943 29.6774 34.0969 29.0082C34.7998 28.3386 35.2331 27.3795 35.3165 26.1926L34.8177 26.1576C34.7417 27.2401 34.3512 28.0755 33.752 28.6462C33.1525 29.2173 32.3246 29.5418 31.3405 29.5669L31.3532 30.0667ZM30.171 32.8646C31.2004 32.0695 31.5968 30.9867 31.5968 29.8168H31.0968C31.0968 30.8635 30.7492 31.7863 29.8653 32.4689L30.171 32.8646ZM26.8274 33.5967C28.0639 33.8758 29.2074 33.6528 30.1764 32.8603L29.8599 32.4732C29.0219 33.1585 28.0395 33.3577 26.9375 33.109L26.8274 33.5967ZM25.1927 36.4386C26.0349 35.6545 26.9588 34.8052 27.1307 33.3829L26.6343 33.3229C26.4873 34.5395 25.7105 35.2735 24.852 36.0727L25.1927 36.4386ZM24.1837 37.4288C24.5213 37.0819 24.8442 36.7501 25.1889 36.4421L24.8557 36.0693C24.4959 36.3909 24.1609 36.7353 23.8254 37.0801L24.1837 37.4288ZM24.1812 37.4313L24.1813 37.4312L23.8278 37.0777L23.8277 37.0778L24.1812 37.4313ZM24.1825 37.4301L24.183 37.4295L23.8259 37.0796L23.8254 37.0801L24.1825 37.4301ZM23.6572 37.9636C23.838 37.7841 24.0124 37.6049 24.1831 37.4295L23.8247 37.0808C23.6536 37.2567 23.4821 37.4329 23.3049 37.6088L23.6572 37.9636ZM19.5682 38.9181C20.3249 39.1964 21.0529 39.2563 21.7452 39.0916C22.4366 38.9271 23.0737 38.5431 23.6572 37.9636L23.3049 37.6088C22.7724 38.1376 22.2137 38.4662 21.6295 38.6052C21.0464 38.7439 20.4191 38.6983 19.7408 38.4488L19.5682 38.9181ZM17.1725 35.4724C17.2003 36.3013 17.4098 37.0231 17.8143 37.6112C18.2195 38.2005 18.809 38.6388 19.5682 38.9181L19.7408 38.4488C19.065 38.2003 18.5651 37.8206 18.2262 37.3279C17.8866 36.834 17.6975 36.21 17.6722 35.4556L17.1725 35.4724ZM17.1459 35.3653C17.1649 35.403 17.1693 35.4212 17.1706 35.4276C17.1719 35.4338 17.1723 35.438 17.1723 35.464H17.6723C17.6723 35.4372 17.6728 35.3886 17.6608 35.3289C17.6488 35.2693 17.6267 35.2084 17.5925 35.1405L17.1459 35.3653ZM14.5424 34.4339C15.3301 35.1602 16.2977 35.5592 17.3822 35.5025L17.3561 35.0032C16.4211 35.0521 15.5818 34.7122 14.8813 34.0663L14.5424 34.4339ZM13.3989 31.6112C13.3989 32.7212 13.7367 33.6909 14.5424 34.4339L14.8813 34.0663C14.1989 33.437 13.8989 32.6123 13.8989 31.6112H13.3989ZM10.8154 30.733C11.6176 31.5296 12.5886 31.8061 13.6359 31.8609L13.662 31.3616C12.6896 31.3107 11.8537 31.0595 11.1677 30.3783L10.8154 30.733ZM9.67899 27.9828C9.73403 29.0213 10.0121 29.9925 10.8221 30.7394L11.161 30.3719C10.4829 29.7466 10.2295 28.9234 10.1783 27.9563L9.67899 27.9828ZM9.64869 28.1898C9.72475 28.2024 9.82488 28.2195 9.92864 28.2195V27.7195C9.87297 27.7195 9.81368 27.7103 9.73033 27.6965L9.64869 28.1898ZM9.64475 28.1891L9.64479 28.1891L9.73423 27.6972L9.7342 27.6972L9.64475 28.1891ZM9.64834 28.1898L9.64838 28.1898L9.73058 27.6966L9.73054 27.6966L9.64834 28.1898ZM9.45031 28.1668C9.50598 28.1668 9.56527 28.176 9.64862 28.1898L9.73026 27.6965C9.6542 27.6839 9.55407 27.6668 9.45031 27.6668V28.1668ZM6.01159 24.2157C5.9836 25.2721 6.29199 26.1927 6.88925 26.8859C7.48636 27.5789 8.35622 28.0259 9.41792 28.1647L9.48271 27.6689C8.52483 27.5437 7.77371 27.1464 7.26803 26.5595C6.76248 25.9728 6.48626 25.1781 6.51142 24.2289L6.01159 24.2157ZM5.85776 23.8502C5.88342 23.8672 5.92426 23.9129 5.95965 23.9933C5.99372 24.0706 6.0115 24.1552 6.0115 24.2223H6.5115C6.5115 24.0784 6.47614 23.9254 6.41721 23.7917C6.35958 23.6609 6.26756 23.5219 6.13378 23.4333L5.85776 23.8502ZM1.34187 16.6823C2.04761 19.5395 3.6752 21.8496 5.82665 23.8259L6.16489 23.4577C4.06459 21.5284 2.50337 19.2996 1.82729 16.5624L1.34187 16.6823ZM3.57107 5.32674C0.79904 8.67326 0.317553 12.5599 1.34196 16.6826L1.8272 16.562C0.832028 12.557 1.30718 8.84362 3.95613 5.64569L3.57107 5.32674ZM21.9499 4.35249C16.5895 -0.59428 8.13172 -0.226658 3.5704 5.32755L3.9568 5.64488C8.32415 0.326865 16.4481 -0.044401 21.6108 4.71994L21.9499 4.35249ZM22.2223 4.51716C22.1954 4.49047 22.1536 4.44827 22.0911 4.40692C22.0288 4.36568 21.9546 4.33054 21.8589 4.29888L21.7018 4.77355C21.7656 4.79467 21.7977 4.8123 21.8151 4.82384C21.8324 4.83527 21.8437 4.84584 21.87 4.87194L22.2223 4.51716ZM23.5064 29.2492C23.4667 29.2329 23.3835 29.1973 23.2685 29.1973V29.6973C23.2744 29.6973 23.2787 29.698 23.2834 29.6994C23.2901 29.7012 23.297 29.7038 23.3162 29.7116L23.5064 29.2492ZM23.4811 29.2501C23.5042 29.2501 23.5197 29.2549 23.5222 29.2556C23.5236 29.2561 23.5234 29.2561 23.5204 29.2549C23.5171 29.2536 23.5133 29.2521 23.5064 29.2492L23.3162 29.7116C23.329 29.7169 23.3998 29.7501 23.4811 29.7501V29.2501ZM26.4382 30.714C25.7027 29.815 24.7331 29.3064 23.4924 29.2504L23.4698 29.7498C24.5675 29.7994 25.405 30.2407 26.0512 31.0306L26.4382 30.714ZM27.1531 31.2817C26.8649 31.1386 26.6282 30.9498 26.4394 30.7155L26.05 31.0292C26.2864 31.3226 26.5812 31.556 26.9307 31.7296L27.1531 31.2817ZM29.1133 30.743C28.6972 31.4317 27.8348 31.6871 27.1699 31.2909L26.914 31.7204C27.8434 32.2742 29.0006 31.8963 29.5412 31.0016L29.1133 30.743ZM28.7259 28.7803C29.0709 29.1229 29.2513 29.4608 29.3068 29.7804C29.3619 30.0975 29.2983 30.4213 29.1106 30.7476L29.5439 30.997C29.7813 30.5844 29.8772 30.143 29.7994 29.6948C29.722 29.2491 29.4773 28.8218 29.0782 28.4255L28.7259 28.7803ZM21.6042 21.708L28.7259 28.7803L29.0782 28.4255L21.9565 21.3533L21.6042 21.708ZM21.2322 21.3386L21.6042 21.7081L21.9565 21.3533L21.5845 20.9838L21.2322 21.3386ZM21.2853 19.8227C20.882 20.2233 20.8067 20.8467 21.2191 21.3246L21.5976 20.9979C21.3723 20.7368 21.4033 20.4103 21.6377 20.1775L21.2853 19.8227ZM22.7928 19.757C22.3131 19.3486 21.6881 19.4228 21.2853 19.8227L21.6377 20.1775C21.8727 19.9441 22.2043 19.9127 22.4687 20.1377L22.7928 19.757ZM23.0888 20.04C23.0156 19.9557 22.9104 19.8327 22.7687 19.7389L22.4927 20.1558C22.569 20.2063 22.6321 20.2767 22.7114 20.368L23.0888 20.04ZM23.1789 20.1394C23.153 20.1136 23.1255 20.0823 23.0888 20.04L22.7114 20.368C22.7454 20.407 22.7852 20.4531 22.8266 20.4942L23.1789 20.1394ZM30.3537 27.2644L23.1789 20.1394L22.8266 20.4942L30.0014 27.6192L30.3537 27.2644ZM31.8224 27.7786C31.2437 27.9113 30.7954 27.703 30.3537 27.2644L30.0014 27.6192C30.5164 28.1306 31.1311 28.45 31.9341 28.266L31.8224 27.7786ZM32.9103 26.6991C32.8393 27.0045 32.7129 27.237 32.5392 27.4095C32.3654 27.5821 32.1308 27.708 31.8224 27.7786L31.9341 28.266C32.3167 28.1783 32.6402 28.0139 32.8915 27.7643C33.1429 27.5146 33.3089 27.1929 33.3973 26.8123L32.9103 26.6991ZM32.4462 25.2442C32.6705 25.467 32.8294 25.6871 32.9119 25.9167C32.9925 26.1406 33.0059 26.3884 32.915 26.6817L33.3926 26.8297C33.5143 26.4368 33.5012 26.0776 33.3824 25.7474C33.2657 25.4228 33.0525 25.1416 32.7985 24.8894L32.4462 25.2442ZM28.7259 21.5761C29.9614 22.803 31.198 24.0311 32.4481 25.246L32.7966 24.8875C31.5487 23.6747 30.314 22.4485 29.0782 21.2213L28.7259 21.5761ZM25.0075 17.9099C26.2554 19.1227 27.4901 20.3488 28.7259 21.5761L29.0782 21.2213C27.8427 19.9944 26.6061 18.7664 25.356 17.5514L25.0075 17.9099ZM24.8993 16.2338C24.6631 16.4684 24.554 16.7647 24.5806 17.0726C24.6067 17.3751 24.761 17.6651 25.0056 17.9081L25.3579 17.5533C25.1774 17.374 25.0925 17.189 25.0788 17.0296C25.0655 16.8758 25.1159 16.7234 25.2516 16.5886L24.8993 16.2338ZM26.5803 16.3394C26.3356 16.0964 26.0442 15.9438 25.7411 15.918C25.4329 15.8918 25.1355 15.9993 24.8993 16.2338L25.2516 16.5886C25.3875 16.4537 25.5419 16.4029 25.6987 16.4162C25.8606 16.43 26.0475 16.515 26.228 16.6942L26.5803 16.3394ZM28.7311 18.4489C28.0135 17.7494 27.2968 17.0509 26.5803 16.3394L26.228 16.6942C26.9465 17.4076 27.6648 18.1077 28.3821 18.8069L28.7311 18.4489ZM30.8852 20.5616C30.1668 19.8481 29.4485 19.148 28.7311 18.4489L28.3821 18.8069C29.0997 19.5064 29.8164 20.2048 30.5329 20.9164L30.8852 20.5616ZM34.074 23.7283L30.8852 20.5616L30.5329 20.9164L33.7217 24.083L34.074 23.7283ZM36.4455 23.4631C35.9493 24.3142 34.8661 24.4685 34.0686 23.723L33.7272 24.0883C34.7366 25.0318 36.2044 24.8694 36.8775 23.7149L36.4455 23.4631ZM36.1064 21.5953C36.6917 22.225 36.7979 22.8942 36.449 23.4573L36.874 23.7207C37.3754 22.9115 37.1628 21.9974 36.4726 21.2549L36.1064 21.5953ZM25.8028 11.2053C29.2577 14.6362 32.7102 18.0647 36.1093 21.5984L36.4697 21.2518C33.0659 17.7133 29.6094 14.2807 26.1551 10.8505L25.8028 11.2053ZM25.5221 10.9724C25.6603 11.064 25.7525 11.1553 25.8028 11.2053L26.1551 10.8505C26.0992 10.7949 25.9788 10.6751 25.7981 10.5555L25.5221 10.9724ZM25.7267 11.073C25.7674 11.0192 25.7974 10.98 25.8363 10.9414L25.4839 10.5866C25.4165 10.6536 25.3668 10.7199 25.3277 10.7717L25.7267 11.073ZM25.5705 11.2581C25.638 11.1911 25.6877 11.1247 25.7267 11.073L25.3277 10.7717C25.2871 10.8255 25.2571 10.8647 25.2182 10.9033L25.5705 11.2581ZM24.6198 12.2088C24.9354 11.892 25.2514 11.575 25.5705 11.2581L25.2182 10.9033C24.898 11.2213 24.5811 11.5393 24.2656 11.8559L24.6198 12.2088ZM21.7364 15.0125C22.7371 14.0982 23.6771 13.1548 24.6198 12.2088L24.2656 11.8559C23.3216 12.8032 22.3898 13.7383 21.3992 14.6433L21.7364 15.0125ZM12.1787 14.1403C14.6018 17.1482 18.9129 17.5964 21.7366 15.0123L21.399 14.6435C18.8017 17.0205 14.8219 16.6243 12.5681 13.8266L12.1787 14.1403ZM16.3433 9.7416C14.9615 11.1006 13.5802 12.4591 12.199 13.8043L12.5478 14.1625C13.9301 12.8163 15.3122 11.4569 16.6939 10.0981L16.3433 9.7416ZM16.3438 9.74105L16.3435 9.74134L16.6936 10.0983L16.6939 10.098L16.3438 9.74105ZM16.3443 9.74061L16.3438 9.74104L16.6939 10.0981L16.6943 10.0976L16.3443 9.74061ZM20.4899 5.67657C19.1077 7.02275 17.7256 8.38206 16.344 9.74088L16.6946 10.0974C18.0763 8.7384 19.4576 7.37995 20.8387 6.03475L20.4899 5.67657ZM4.92616 7.31687C8.3958 2.27713 16.1301 1.65371 20.4871 6.03201L20.8415 5.67931C16.2699 1.08538 8.16637 1.72864 4.51433 7.03334L4.92616 7.31687ZM3.99763 17.3261C2.6909 13.8483 2.75049 10.4548 4.92569 7.31755L4.5148 7.03266C2.22567 10.3343 2.17896 13.9074 3.52958 17.5019L3.99763 17.3261ZM7.32758 21.9741C5.81448 20.6787 4.67212 19.1294 3.99776 17.3264L3.52944 17.5016C4.2369 19.393 5.433 21.0104 7.00242 22.3539L7.32758 21.9741ZM9.69933 19.2949L6.98884 21.9866L7.34116 22.3414L10.0517 19.6497L9.69933 19.2949ZM13.2933 18.3878C12.6209 18.193 11.9777 18.1618 11.3698 18.3127C10.7616 18.4637 10.2047 18.793 9.69933 19.2949L10.0517 19.6497C10.5029 19.2016 10.9824 18.924 11.4903 18.7979C11.9985 18.6718 12.5511 18.6933 13.1542 18.868L13.2933 18.3878ZM15.9109 21.0474C15.5691 19.6897 14.6493 18.7805 13.2933 18.3878L13.1542 18.868C14.3493 19.2142 15.1301 19.9938 15.4261 21.1695L15.9109 21.0474ZM16.0341 21.744C16.0114 21.5263 15.9856 21.2674 15.9055 21.0289L15.4315 21.188C15.4909 21.3648 15.513 21.5668 15.5368 21.7958L16.0341 21.744ZM16.0321 21.7288L16.0321 21.7288L15.5389 21.811L15.5389 21.811L16.0321 21.7288ZM16.0745 22.0698C16.0577 21.97 16.0465 21.8628 16.0341 21.744L15.5368 21.7958C15.5488 21.9113 15.5616 22.0345 15.5814 22.1526L16.0745 22.0698ZM18.6147 22.996C17.8679 22.1973 16.8931 21.8612 15.8279 21.8612V22.3612C16.7824 22.3612 17.6146 22.6585 18.2495 23.3375L18.6147 22.996ZM19.7447 25.7389C19.6893 24.7495 19.4098 23.7853 18.6083 22.9894L18.256 23.3442C18.9426 24.026 19.1945 24.8563 19.2455 25.7668L19.7447 25.7389ZM23.5184 29.4545C23.5467 28.4713 23.2212 27.5086 22.5415 26.7768C21.8601 26.0432 20.8384 25.5582 19.5054 25.5031L19.4847 26.0027C20.7028 26.0531 21.5944 26.4917 22.1752 27.1171C22.7578 27.7444 23.0435 28.5761 23.0186 29.4401L23.5184 29.4545ZM38.2028 20.6334C38.4261 20.7459 38.426 20.7459 38.426 20.746C38.426 20.746 38.426 20.746 38.426 20.746C38.4259 20.7461 38.4259 20.7461 38.4259 20.7462C38.4258 20.7463 38.4258 20.7464 38.4257 20.7465C38.4256 20.7467 38.4256 20.7469 38.4255 20.747C38.4253 20.7473 38.4252 20.7475 38.4252 20.7476C38.425 20.7479 38.425 20.7479 38.4252 20.7476C38.4255 20.747 38.4263 20.7456 38.4275 20.7436C38.4301 20.7391 38.4331 20.7345 38.4355 20.7313C38.439 20.7267 38.4361 20.7317 38.4255 20.7401C38.4184 20.7458 38.3772 20.7779 38.3091 20.7779V20.2779C38.2143 20.2779 38.1466 20.3232 38.1145 20.3486C38.0791 20.3768 38.0529 20.4082 38.0365 20.43C38.019 20.4532 38.0053 20.475 37.9963 20.4903C37.9917 20.4982 37.9879 20.505 37.9851 20.5102C37.9837 20.5128 37.9825 20.5151 37.9816 20.5169C37.9811 20.5178 37.9807 20.5186 37.9804 20.5193C37.9802 20.5196 37.98 20.5199 37.9799 20.5202C37.9798 20.5204 37.9797 20.5205 37.9797 20.5206C37.9796 20.5207 37.9796 20.5208 37.9796 20.5208C37.9795 20.5209 37.9795 20.5209 37.9795 20.5209C37.9795 20.521 37.9795 20.521 38.2028 20.6334ZM34.9197 17.7777C35.9427 18.7806 36.9792 19.7968 38.0289 20.813L38.3767 20.4538C37.3283 19.4388 36.2929 18.4237 35.2697 17.4207L34.9197 17.7777ZM34.9218 17.7798L34.9221 17.78L35.2673 17.4183L35.267 17.4181L34.9218 17.7798ZM34.9194 17.7775L34.9197 17.7777L35.2692 17.4201L35.2689 17.4199L34.9194 17.7775ZM34.9192 17.7773L34.9194 17.7775L35.2689 17.4199L35.2687 17.4197L34.9192 17.7773ZM34.9189 17.777L34.9192 17.7773L35.2687 17.4197L35.2684 17.4194L34.9189 17.777ZM34.9188 17.7769L34.9195 17.7775L35.2679 17.4189L35.2673 17.4183L34.9188 17.7769ZM31.8108 14.7437C32.8326 15.7317 33.8682 16.7469 34.9181 17.7761L35.2681 17.4191C34.2184 16.3901 33.1816 15.3737 32.1584 14.3843L31.8108 14.7437ZM26.4937 9.46361L31.8084 14.7414L32.1607 14.3866L26.8461 9.10882L26.4937 9.46361ZM24.9859 9.46361C25.359 9.09316 25.5725 8.98205 25.7398 8.98205C25.9071 8.98205 26.1207 9.09316 26.4937 9.46361L26.8461 9.10882C26.475 8.74038 26.1306 8.48205 25.7398 8.48205C25.3491 8.48205 25.0046 8.74038 24.6336 9.10882L24.9859 9.46361ZM23.56 10.8914C24.0325 10.4164 24.5063 9.93993 24.9859 9.46361L24.6336 9.10882C24.1526 9.58643 23.6778 10.0639 23.2055 10.5388L23.56 10.8914ZM20.7308 13.6891C21.6881 12.7737 22.6214 11.8352 23.56 10.8914L23.2055 10.5388C22.2662 11.4833 21.3372 12.4174 20.3852 13.3278L20.7308 13.6891ZM14.8836 14.2911C16.5892 15.5332 19.1148 15.2385 20.731 13.6889L20.385 13.328C18.9187 14.7339 16.6611 14.967 15.1779 13.8869L14.8836 14.2911ZM14.7807 13.9834V14.089H15.2807V13.9834H14.7807ZM17.5362 11.1447C16.651 12.0326 15.7642 12.922 14.8565 13.8042L15.205 14.1627C16.1159 13.2773 17.0055 12.3852 17.8903 11.4978L17.5362 11.1447ZM17.5365 11.1445L17.5365 11.1445L17.89 11.498L17.8901 11.498L17.5365 11.1445ZM17.5365 11.1444L17.5365 11.1445L17.8901 11.498L17.8901 11.498L17.5365 11.1444ZM17.5365 11.1444L17.5365 11.1444L17.8901 11.498L17.8901 11.498L17.5365 11.1444ZM17.5366 11.1444L17.5365 11.1444L17.8901 11.498L17.8901 11.498L17.5366 11.1444ZM17.5366 11.1444L17.5366 11.1444L17.8901 11.498L17.8901 11.4979L17.5366 11.1444ZM22.2499 6.56801C20.6223 8.04957 19.0817 9.59473 17.5363 11.1446L17.8904 11.4977C19.4372 9.94638 20.9693 8.40983 22.5864 6.93776L22.2499 6.56801ZM35.2362 4.78972C31.2086 2.68182 25.7272 3.38462 22.2493 6.56848L22.587 6.93728C25.9119 3.89337 31.1661 3.22394 35.0043 5.23271L35.2362 4.78972ZM40.6819 12.5724C40.1395 9.12537 38.3963 6.41288 35.2345 4.78884L35.006 5.23359C38.0093 6.77621 39.6674 9.34151 40.188 12.6501L40.6819 12.5724ZM38.8348 20.2461C40.4066 17.9316 41.1181 15.3881 40.682 12.5729L40.1879 12.6495C40.6021 15.3232 39.9318 17.7408 38.4211 19.9652L38.8348 20.2461ZM38.6632 20.4736C38.7158 20.4083 38.7755 20.3344 38.8355 20.245L38.4204 19.9663C38.3741 20.0352 38.3275 20.0933 38.2738 20.1599L38.6632 20.4736ZM38.5166 20.6672C38.5629 20.5983 38.6095 20.5402 38.6632 20.4736L38.2738 20.1599C38.2212 20.2253 38.1615 20.2991 38.1015 20.3885L38.5166 20.6672ZM15.6949 24.1887L15.6949 24.1887L15.5241 23.7188L15.524 23.7188L15.6949 24.1887ZM15.1862 24.4181C15.3173 24.314 15.4896 24.2554 15.6865 24.1916L15.5324 23.7159C15.3507 23.7748 15.0889 23.8568 14.8752 24.0266L15.1862 24.4181ZM12.3465 27.2397C13.2438 26.2438 14.1939 25.3003 15.1968 24.4092L14.8647 24.0354C13.848 24.9388 12.8848 25.8953 11.9751 26.905L12.3465 27.2397ZM12.5423 29.1575C11.9377 28.6032 11.8647 27.8053 12.3511 27.2345L11.9705 26.9102C11.2877 27.7115 11.4273 28.8137 12.2045 29.5261L12.5423 29.1575ZM14.4904 29.2097C13.9492 29.7024 13.091 29.702 12.5496 29.1644L12.1972 29.5192C12.9313 30.2482 14.0927 30.2479 14.827 29.5794L14.4904 29.2097ZM17.1346 26.5837C16.2877 27.4772 15.3878 28.3709 14.488 29.2119L14.8294 29.5772C15.7366 28.7293 16.6437 27.8285 17.4975 26.9276L17.1346 26.5837ZM17.4082 25.0138C17.5505 25.32 17.591 25.5983 17.548 25.8492C17.505 26.0996 17.3753 26.3445 17.1399 26.5783L17.4922 26.9331C17.7883 26.639 17.9774 26.3034 18.0408 25.9337C18.1041 25.5644 18.0382 25.183 17.8616 24.8031L17.4082 25.0138ZM15.8521 24.1012C16.2825 24.1515 16.6034 24.2499 16.8485 24.3971C17.0898 24.5419 17.2713 24.7422 17.4116 25.0209L17.8582 24.796C17.6797 24.4414 17.436 24.1666 17.1059 23.9684C16.7798 23.7726 16.3832 23.6598 15.9101 23.6046L15.8521 24.1012ZM15.6866 24.1915C15.7836 24.1602 15.8975 24.1238 15.9923 24.0768L15.7699 23.629C15.7153 23.6561 15.6406 23.6809 15.5326 23.7159L15.6866 24.1915ZM15.6917 24.1899L15.6917 24.1898L15.5275 23.7176L15.5274 23.7176L15.6917 24.1899ZM15.6782 24.1941L15.6782 24.1941L15.5409 23.7134L15.5408 23.7134L15.6782 24.1941ZM21.6209 29.0918C21.6481 29.0918 21.6668 29.0982 21.6742 29.1012C21.6785 29.1029 21.6814 29.1044 21.683 29.1052C21.6847 29.1061 21.6856 29.1067 21.6859 29.1069C21.6862 29.1071 21.6862 29.1071 21.686 29.107C21.6859 29.1069 21.6858 29.1068 21.6858 29.1069C21.6859 29.1069 21.6862 29.1072 21.687 29.1079C21.6874 29.1083 21.6879 29.1087 21.6885 29.1093C21.6888 29.1096 21.6892 29.11 21.6895 29.1103C21.6897 29.1105 21.6899 29.1107 21.6901 29.1109C21.6903 29.111 21.6904 29.1112 21.6905 29.1113C21.6905 29.1113 21.6906 29.1114 21.6906 29.1114C21.6907 29.1115 21.6907 29.1115 21.6907 29.1115C21.6908 29.1116 21.6908 29.1116 21.5147 29.289C21.3385 29.4664 21.3385 29.4664 21.3386 29.4665C21.3386 29.4665 21.3386 29.4665 21.3387 29.4666C21.3387 29.4666 21.3388 29.4667 21.3389 29.4667C21.339 29.4669 21.3391 29.467 21.3392 29.4671C21.3395 29.4674 21.3398 29.4677 21.3401 29.4679C21.3407 29.4685 21.3413 29.4692 21.342 29.4698C21.3435 29.4712 21.3452 29.4728 21.3471 29.4746C21.351 29.4782 21.3559 29.4826 21.3617 29.4876C21.3732 29.4974 21.3896 29.5104 21.4099 29.5238C21.4423 29.5453 21.5197 29.5918 21.6209 29.5918V29.0918ZM21.4988 30.0611C21.6068 29.8466 21.7045 29.6537 21.8239 29.4878L21.418 29.1958C21.2716 29.3993 21.1567 29.6287 21.0522 29.8363L21.4988 30.0611ZM21.133 30.7016C21.2794 30.4981 21.3942 30.2688 21.4988 30.0611L21.0522 29.8363C20.9442 30.0509 20.8464 30.2437 20.7271 30.4097L21.133 30.7016ZM18.6556 33.1664C19.5099 32.3711 20.3109 31.5756 21.1118 30.7273L20.7482 30.384C19.9547 31.2246 19.1613 32.0125 18.3149 32.8005L18.6556 33.1664ZM15.8112 33.1608C16.2244 33.5711 16.7242 33.7876 17.2363 33.7876C17.7484 33.7876 18.2483 33.5711 18.6614 33.1608L18.3091 32.806C17.9782 33.1347 17.6011 33.2876 17.2363 33.2876C16.8715 33.2876 16.4945 33.1347 16.1635 32.806L15.8112 33.1608ZM15.9175 30.3783C15.0814 31.2086 15.0712 32.365 15.8043 33.1536L16.1705 32.8132C15.628 32.2296 15.6178 31.3805 16.2698 30.7331L15.9175 30.3783ZM18.4212 27.8921C17.5669 28.6875 16.7128 29.5357 15.9119 30.384L16.2755 30.7273C17.069 29.8867 17.9155 29.0461 18.7619 28.2581L18.4212 27.8921ZM20.5559 27.5312C20.1738 27.3561 19.7908 27.291 19.4202 27.3536C19.0491 27.4163 18.7116 27.6036 18.4154 27.8977L18.7677 28.2525C19.0031 28.0188 19.2502 27.8894 19.5035 27.8466C19.7574 27.8037 20.0387 27.8441 20.3475 27.9857L20.5559 27.5312ZM21.7647 29.289C21.7647 28.8764 21.6602 28.508 21.4474 28.2026C21.2347 27.8975 20.925 27.6716 20.5409 27.5249L20.3625 27.992C20.6693 28.1092 20.8911 28.2791 21.0372 28.4886C21.183 28.6978 21.2647 28.9627 21.2647 29.289H21.7647ZM20.3347 36.7635C19.7949 36.5402 19.4138 35.9934 19.3173 35.3228L18.8224 35.394C18.9386 36.2012 19.4078 36.9211 20.1435 37.2256L20.3347 36.7635ZM21.9231 36.4477C21.6881 36.6811 21.4395 36.8122 21.1823 36.8611C20.924 36.9102 20.6392 36.8797 20.3283 36.761L20.1499 37.2281C20.53 37.3732 20.9095 37.4219 21.2757 37.3523C21.643 37.2825 21.979 37.0969 22.2754 36.8025L21.9231 36.4477ZM22.7831 35.6053C22.4939 35.8866 22.2057 36.1671 21.9231 36.4477L22.2754 36.8025C22.5559 36.524 22.8423 36.2453 23.1317 35.9637L22.7831 35.6053ZM24.522 33.867C23.9572 34.4629 23.3683 35.036 22.7831 35.6053L23.1317 35.9637C23.7157 35.3955 24.312 34.8154 24.8849 34.211L24.522 33.867ZM24.5273 31.8942C25.072 32.4351 25.1144 33.2785 24.5273 33.8616L24.8796 34.2164C25.6743 33.4272 25.6104 32.2651 24.8796 31.5394L24.5273 31.8942ZM22.488 31.8414C23.0713 31.2622 23.9234 31.2944 24.5273 31.8942L24.8796 31.5394C24.1017 30.7669 22.9343 30.6936 22.1357 31.4866L22.488 31.8414ZM19.8891 34.4221C20.736 33.5285 21.5828 32.6876 22.4826 31.8466L22.1411 31.4813C21.234 32.3292 20.38 33.1772 19.5262 34.0781L19.8891 34.4221ZM19.494 35.0897C19.6266 34.8263 19.744 34.5957 19.8992 34.4108L19.5162 34.0894C19.317 34.3268 19.1746 34.6122 19.0474 34.8648L19.494 35.0897ZM19.4942 35.0892L19.4943 35.0891L19.0471 34.8655L19.047 34.8655L19.4942 35.0892ZM19.2866 35.4831C19.3615 35.3529 19.4295 35.2176 19.4939 35.0898L19.0473 34.8649C18.9818 34.995 18.92 35.1177 18.8532 35.2337L19.2866 35.4831ZM7.76757 24.4139C7.88393 25.2805 8.30173 25.8839 9.02025 26.2407L9.24261 25.7929C8.68561 25.5163 8.35936 25.0641 8.26313 24.3474L7.76757 24.4139ZM7.82861 24.1816C7.81407 24.2157 7.79992 24.2489 7.78581 24.2816L8.24489 24.4797C8.25953 24.4458 8.27414 24.4115 8.28859 24.3776L7.82861 24.1816ZM8.49372 23.1325C8.14842 23.4183 7.96946 23.851 7.8286 24.1816L8.28859 24.3776C8.44022 24.0217 8.57755 23.7121 8.8125 23.5177L8.49372 23.1325ZM10.3867 21.1919C9.73675 21.8274 9.07173 22.4776 8.46623 23.1591L8.84 23.4912C9.43185 22.8251 10.0841 22.1872 10.7362 21.5494L10.3867 21.1919ZM11.028 20.5616C10.817 20.7711 10.6027 20.9807 10.3867 21.1919L10.7362 21.5494C10.952 21.3384 11.1678 21.1275 11.3803 20.9164L11.028 20.5616ZM13.7719 20.6144C12.994 19.8419 11.8266 19.7686 11.028 20.5616L11.3803 20.9164C11.9636 20.3372 12.8157 20.3694 13.4196 20.9692L13.7719 20.6144ZM13.7719 23.2914C14.5666 22.5022 14.5027 21.3401 13.7719 20.6144L13.4196 20.9692C13.9643 21.5101 14.0067 22.3535 13.4196 22.9366L13.7719 23.2914ZM12.9273 24.1418C13.2109 23.8543 13.4915 23.5699 13.7719 23.2914L13.4196 22.9366C13.137 23.2172 12.8546 23.5035 12.5713 23.7906L12.9273 24.1418ZM11.1623 25.8827C11.771 25.3138 12.3551 24.7217 12.9273 24.1418L12.5713 23.7906C11.998 24.3717 11.4209 24.9566 10.8209 25.5175L11.1623 25.8827ZM9.02727 26.244C9.4093 26.4191 9.79235 26.4843 10.163 26.4216C10.5341 26.3589 10.8716 26.1716 11.1677 25.8775L10.8154 25.5227C10.5801 25.7564 10.333 25.8858 10.0796 25.9286C9.82577 25.9715 9.54447 25.9311 9.2356 25.7895L9.02727 26.244Z" fill="#1E88E5"/>
<path fill-rule="evenodd" clip-rule="evenodd" d="M112.967 23.9539V33.3594H110.354V4.45459H112.967V23.5333H113.083L121.382 15.466H125.148L116.08 23.648L126.07 33.3594H122.227L113.083 23.9539H112.967ZM63.575 33.3594C65.3169 33.3594 67.0203 33.0727 68.6854 32.4992C70.3504 31.9256 71.8745 31.0972 73.2578 30.014C74.641 28.9307 75.7553 27.5033 76.6007 25.7318C77.446 23.9603 77.8686 21.9912 77.8686 19.8246C77.8686 17.658 77.446 15.689 76.6007 13.9175C75.7553 12.146 74.641 10.7186 73.2578 9.63528C71.8745 8.55199 70.3504 7.72359 68.6854 7.15008C67.0203 6.57657 65.3169 6.28982 63.575 6.28982H54.5454V33.3594H63.575ZM62.8065 30.9124H57.3119V8.73679H62.8065C64.7789 8.73679 66.5528 9.04903 68.1282 9.67352C69.7036 10.298 70.978 11.1392 71.9514 12.197C72.9248 13.2548 73.6676 14.4336 74.18 15.7336C74.6923 17.0335 74.9484 18.3972 74.9484 19.8246C74.9484 21.252 74.6923 22.6157 74.18 23.9156C73.6676 25.2156 72.9248 26.3945 71.9514 27.4523C70.978 28.5101 69.7036 29.3512 68.1282 29.9757C66.5528 30.6002 64.7789 30.9124 62.8065 30.9124ZM85.0022 9.8838C84.6307 10.2407 84.2017 10.4191 83.715 10.4191C83.2283 10.4191 82.7992 10.2407 82.4278 9.8838C82.0563 9.52695 81.8706 9.09364 81.8706 8.58385C81.8706 8.07407 82.0563 7.64075 82.4278 7.2839C82.7992 6.92705 83.2283 6.74862 83.715 6.74862C84.2017 6.74862 84.6243 6.92705 84.9829 7.2839C85.3672 7.64075 85.5593 8.07407 85.5593 8.58385C85.5593 9.09364 85.3736 9.52695 85.0022 9.8838ZM85.0214 33.3594V15.466H82.4086V33.3594H85.0214ZM102.28 30.4536C100.717 32.6967 98.5396 33.8182 95.7475 33.8182C94.1337 33.8182 92.6928 33.3658 91.4248 32.4609C90.1568 31.5561 89.5229 30.1987 89.5229 28.389C89.5229 27.4969 89.6766 26.7131 89.9839 26.0376C90.2913 25.3622 90.7524 24.8078 91.3672 24.3745C91.982 23.9411 92.648 23.5907 93.3652 23.323C94.0825 23.0554 94.9662 22.8515 96.0165 22.7113C97.0667 22.5711 98.0465 22.4819 98.9559 22.4436C99.8653 22.4054 100.948 22.3863 102.203 22.3863V21.8128C102.203 18.7286 100.602 17.1865 97.3997 17.1865C95.248 17.1865 93.4677 17.8874 92.0588 19.2893L90.5987 17.5688C92.315 15.861 94.6716 15.0071 97.6687 15.0071C99.718 15.0071 101.396 15.5679 102.702 16.6894C104.009 17.811 104.662 19.4168 104.662 21.5069V29.3449C104.662 30.9507 104.764 32.2889 104.969 33.3594H102.625C102.446 32.3398 102.356 31.3713 102.356 30.4536H102.28ZM96.4391 31.6771C95.2608 31.6771 94.2618 31.4031 93.4421 30.8551C92.6224 30.3071 92.2125 29.4468 92.2125 28.2743C92.2125 27.4587 92.4815 26.7832 93.0194 26.2479C93.5574 25.7126 94.3066 25.3176 95.2672 25.0627C96.2278 24.8078 97.1884 24.6357 98.149 24.5465C99.1096 24.4573 100.205 24.4127 101.434 24.4127H102.203V25.7509C102.203 27.4077 101.684 28.8096 100.647 29.9566C99.6091 31.1036 98.2066 31.6771 96.4391 31.6771ZM133.415 33.8182C136.207 33.8182 138.384 32.6967 139.947 30.4536H140.023C140.023 31.3713 140.113 32.3398 140.292 33.3594H142.636C142.431 32.2889 142.329 30.9507 142.329 29.3449V21.5069C142.329 19.4168 141.676 17.811 140.369 16.6894C139.063 15.5679 137.385 15.0071 135.336 15.0071C132.339 15.0071 129.982 15.861 128.266 17.5688L129.726 19.2893C131.135 17.8874 132.915 17.1865 135.067 17.1865C138.269 17.1865 139.87 18.7286 139.87 21.8128V22.3863C138.615 22.3863 137.532 22.4054 136.623 22.4436C135.714 22.4819 134.734 22.5711 133.684 22.7113C132.633 22.8515 131.75 23.0554 131.032 23.323C130.315 23.5907 129.649 23.9411 129.034 24.3745C128.42 24.8078 127.958 25.3622 127.651 26.0376C127.344 26.7131 127.19 27.4969 127.19 28.389C127.19 30.1987 127.824 31.5561 129.092 32.4609C130.36 33.3658 131.801 33.8182 133.415 33.8182ZM131.109 30.8551C131.929 31.4031 132.928 31.6771 134.106 31.6771C135.874 31.6771 137.276 31.1036 138.314 29.9566C139.351 28.8096 139.87 27.4077 139.87 25.7509V24.4127H139.101C137.872 24.4127 136.777 24.4573 135.816 24.5465C134.856 24.6357 133.895 24.8078 132.934 25.0627C131.974 25.3176 131.224 25.7126 130.687 26.2479C130.149 26.7832 129.88 27.4587 129.88 28.2743C129.88 29.4468 130.289 30.3071 131.109 30.8551Z" fill="#004887"/>
</svg>
